<svg width="61" height="47" viewBox="0 0 61 47" fill="none" xmlns="http://www.w3.org/2000/svg">
<g clip-path="url(#clip0)">
<path d="M22.4365 9.91812C22.6755 9.91818 22.9109 9.85968 23.1218 9.74782C23.3327 9.63595 23.5126 9.47416 23.6456 9.27676C23.6456 9.65372 23.7956 10.0154 24.0631 10.2828C24.3305 10.5502 24.6935 10.7016 25.0729 10.704C25.3116 10.7025 25.5464 10.6433 25.7571 10.5316C25.9677 10.4199 26.1478 10.2589 26.2819 10.0626L26.2819 10.1078C26.2843 10.4856 26.4364 10.8472 26.7053 11.1144C26.9741 11.3815 27.3381 11.5326 27.7183 11.535C27.956 11.5344 28.1898 11.4755 28.3991 11.3636C28.6084 11.2518 28.7868 11.0904 28.9183 10.8937L28.9183 15.5728C28.9145 15.9505 29.0617 16.3143 29.3274 16.5844C29.461 16.7172 29.6198 16.8223 29.7945 16.8936C29.9693 16.9649 30.1566 17.0011 30.3456 17C30.7265 17 31.0919 16.8496 31.3613 16.582C31.6306 16.3143 31.7819 15.9513 31.7819 15.5728L31.782 6.83791C31.782 6.74758 31.7819 6.70241 31.9183 6.65724C32.0546 6.61208 32.0637 6.65723 32.1547 6.7024L33.591 8.12962C33.8285 8.36019 34.1379 8.50367 34.4683 8.5365C34.7987 8.56933 35.1305 8.48951 35.4092 8.31023C35.569 8.19698 35.7043 8.05318 35.8074 7.8872C35.9104 7.72122 35.979 7.53646 36.0092 7.34376C36.0412 7.14744 36.0284 6.94645 35.9717 6.75571C35.9151 6.56497 35.8161 6.38932 35.6819 6.24171L32.0456 1.92399C31.5486 1.31593 30.9206 0.826494 30.2078 0.491916C29.495 0.157339 28.7157 -0.0138498 27.9274 -0.00907389L25.7092 -0.00907406C24.4575 -0.00182051 23.259 0.494613 22.3728 1.37294C21.4936 2.25217 20.9973 3.43956 20.991 4.67903L20.991 8.59031C21.028 8.94536 21.1928 9.27516 21.455 9.51913C21.7173 9.76309 22.0593 9.90478 22.4183 9.91812L22.4365 9.91812Z" fill="#522A10"/>
</g>
<path d="M10.2372 34.1394C13.1965 34.1394 15.5954 31.7551 15.5954 28.8139C15.5954 25.8726 13.1965 23.4883 10.2372 23.4883C7.27788 23.4883 4.87891 25.8726 4.87891 28.8139C4.87891 31.7551 7.27788 34.1394 10.2372 34.1394Z" stroke="#522A10" stroke-width="2" stroke-miterlimit="10"/>
<path d="M1.16992 45.8255C1.16992 40.3022 4.6797 34.8022 10.2369 34.8022C15.794 34.8022 19.2921 40.3022 19.2921 45.8255H1.16992Z" stroke="#522A10" stroke-width="2" stroke-miterlimit="10"/>
<path d="M30.4999 30.6512C33.4592 30.6512 35.8581 28.2668 35.8581 25.3256C35.8581 22.3843 33.4592 20 30.4999 20C27.5406 20 25.1416 22.3843 25.1416 25.3256C25.1416 28.2668 27.5406 30.6512 30.4999 30.6512Z" fill="#522A10"/>
<path d="M21.4092 42.3372C21.4092 36.8139 24.919 31.314 30.4761 31.314C36.0333 31.314 39.5431 36.8139 39.5431 42.3372" fill="#522A10"/>
<path d="M50.7626 34.1394C53.7219 34.1394 56.1208 31.7551 56.1208 28.8139C56.1208 25.8726 53.7219 23.4883 50.7626 23.4883C47.8033 23.4883 45.4043 25.8726 45.4043 28.8139C45.4043 31.7551 47.8033 34.1394 50.7626 34.1394Z" stroke="#522A10" stroke-width="2" stroke-miterlimit="10"/>
<path d="M41.6963 45.8255C41.6963 40.3022 45.2061 34.8022 50.7632 34.8022C56.3204 34.8022 59.8302 40.3022 59.8302 45.8255H41.6963Z" stroke="#522A10" stroke-width="2" stroke-miterlimit="10"/>
<defs>
<clipPath id="clip0">
<rect width="15" height="17" fill="white" transform="translate(36 17) rotate(-180)"/>
</clipPath>
</defs>
</svg>
