<svg xmlns="http://www.w3.org/2000/svg" fill="none" viewBox="0.6 0.59 177.81 40.08">
<g id="CWP-Logo">
<path id="child welfare playbook" d="M50.901 16.252C49.879 16.252 48.976 16.056 48.192 15.664C47.422 15.258 46.82 14.698 46.386 13.984C45.952 13.27 45.735 12.444 45.735 11.506C45.735 10.498 45.973 9.602 46.449 8.818C46.939 8.034 47.604 7.418 48.444 6.97C49.298 6.522 50.257 6.298 51.321 6.298C52.133 6.298 52.868 6.424 53.526 6.676C54.184 6.928 54.709 7.264 55.101 7.684C55.493 8.104 55.689 8.573 55.689 9.091C55.689 9.511 55.535 9.84 55.227 10.078C54.919 10.316 54.492 10.435 53.946 10.435C53.456 10.435 53.022 10.309 52.644 10.057C52.644 8.433 52.203 7.621 51.321 7.621C50.831 7.621 50.446 7.887 50.166 8.419C49.9 8.951 49.767 9.714 49.767 10.708C49.767 11.926 49.984 12.815 50.418 13.375C50.866 13.935 51.559 14.215 52.497 14.215C52.973 14.215 53.435 14.145 53.883 14.005C54.331 13.865 54.835 13.634 55.395 13.312L55.794 14.362C55.458 14.726 55.024 15.055 54.492 15.349C53.974 15.629 53.4 15.846 52.77 16C52.154 16.168 51.531 16.252 50.901 16.252ZM56.5328 16C56.5328 15.132 56.6448 14.649 56.8688 14.551L57.8348 14.068V2.686L56.8688 2.35C56.6448 2.28 56.5328 1.811 56.5328 0.943C57.3588 0.817 58.0168 0.726 58.5068 0.67C58.9968 0.613999 59.4028 0.585999 59.7248 0.585999C60.3268 0.585999 60.7608 0.705 61.0268 0.943C61.3068 1.181 61.4468 1.566 61.4468 2.098V8.167H61.6568C62.3288 7.579 63.0148 7.124 63.7148 6.802C64.4148 6.466 65.0658 6.298 65.6678 6.298C67.2638 6.298 68.0618 7.355 68.0618 9.469V13.963L69.3638 14.404C69.3638 14.712 69.3288 14.985 69.2588 15.223C69.2028 15.461 69.0978 15.72 68.9438 16H63.3578C63.3578 15.132 63.4698 14.649 63.6938 14.551L64.2398 14.278V10.078C64.2398 9.252 63.9458 8.839 63.3578 8.839C62.9518 8.839 62.5948 8.951 62.2868 9.175C61.9788 9.385 61.7688 9.539 61.6568 9.637V14.152L62.5388 14.404C62.5388 14.712 62.5038 14.985 62.4338 15.223C62.3778 15.461 62.2728 15.72 62.1188 16H56.5328ZM70.4239 16C70.4239 15.118 70.5359 14.635 70.7599 14.551L71.9359 14.068V8.398L70.7599 8.062C70.5359 7.992 70.4239 7.523 70.4239 6.655C71.0399 6.557 71.6559 6.473 72.2719 6.403C72.9019 6.333 73.5809 6.298 74.3089 6.298C75.2749 6.298 75.7579 6.802 75.7579 7.81V13.963L77.4799 14.404C77.4799 14.712 77.4449 14.985 77.3749 15.223C77.3189 15.461 77.2139 15.72 77.0599 16H70.4239ZM73.7209 4.891C73.0769 4.891 72.5869 4.709 72.2509 4.345C71.9149 3.981 71.7469 3.505 71.7469 2.917C71.7469 2.343 71.9429 1.874 72.3349 1.51C72.7409 1.132 73.2029 0.943 73.7209 0.943C74.3789 0.943 74.8759 1.125 75.2119 1.489C75.5619 1.853 75.7369 2.329 75.7369 2.917C75.7369 3.477 75.5339 3.946 75.1279 4.324C74.7219 4.702 74.2529 4.891 73.7209 4.891ZM78.0045 16C78.0045 15.118 78.1165 14.635 78.3405 14.551L79.5165 14.068V2.686L78.3405 2.35C78.1165 2.28 78.0045 1.811 78.0045 0.943C78.6205 0.844999 79.2365 0.760999 79.8525 0.690999C80.4825 0.620999 81.1615 0.585999 81.8895 0.585999C82.8555 0.585999 83.3385 1.09 83.3385 2.098V13.963L85.0605 14.404C85.0605 14.712 85.0255 14.985 84.9555 15.223C84.8995 15.461 84.7945 15.72 84.6405 16H78.0045ZM89.4588 16.252C88.7588 16.252 88.1358 16.063 87.5898 15.685C87.0578 15.307 86.6448 14.782 86.3508 14.11C86.0568 13.424 85.9098 12.626 85.9098 11.716C85.9098 10.624 86.1128 9.672 86.5188 8.86C86.9248 8.048 87.4988 7.418 88.2408 6.97C88.9828 6.522 89.8438 6.298 90.8238 6.298C91.5378 6.298 92.2518 6.41 92.9658 6.634V2.686L91.7898 2.35C91.5658 2.28 91.4538 1.811 91.4538 0.943C92.2518 0.817 92.9098 0.726 93.4278 0.67C93.9598 0.613999 94.4008 0.585999 94.7508 0.585999C95.4508 0.585999 95.9618 0.705 96.2838 0.943C96.6198 1.181 96.7878 1.566 96.7878 2.098V13.459C96.7878 13.725 96.8368 13.914 96.9348 14.026C97.0328 14.138 97.2008 14.194 97.4388 14.194C97.5788 14.194 97.7118 14.18 97.8378 14.152C97.9638 14.11 98.0548 14.075 98.1108 14.047L98.3838 15.139C97.9918 15.475 97.5228 15.748 96.9768 15.958C96.4308 16.154 95.8988 16.252 95.3808 16.252C94.7228 16.252 94.1908 16.084 93.7848 15.748C93.3928 15.398 93.1968 14.929 93.1968 14.341H93.0078C92.6718 14.901 92.1678 15.363 91.4958 15.727C90.8378 16.077 90.1588 16.252 89.4588 16.252ZM91.5168 13.942C91.8808 13.942 92.1818 13.844 92.4198 13.648C92.6718 13.452 92.8818 13.242 93.0498 13.018V8.377C92.7138 8.055 92.3148 7.894 91.8528 7.894C91.2508 7.894 90.7818 8.181 90.4458 8.755C90.1098 9.329 89.9418 10.134 89.9418 11.17C89.9418 13.018 90.4668 13.942 91.5168 13.942ZM108.243 16.252C108.019 16.252 107.774 16.224 107.508 16.168C107.256 16.126 107.039 16.07 106.857 16L104.316 8.629L103.203 8.293C103.203 7.971 103.231 7.691 103.287 7.453C103.357 7.215 103.469 6.963 103.623 6.697H109.314C109.314 7.649 109.202 8.167 108.978 8.251L108.117 8.545L109.209 11.8L110.763 7.348H112.737L114.69 12.115L115.824 8.608L114.816 8.293C114.816 7.831 114.844 7.495 114.9 7.285C114.956 7.061 115.061 6.865 115.215 6.697H118.932C118.932 7.159 118.904 7.502 118.848 7.726C118.792 7.95 118.708 8.09 118.596 8.146L117.861 8.461L115.614 15.223C115.39 15.909 114.837 16.252 113.955 16.252C113.731 16.252 113.486 16.224 113.22 16.168C112.968 16.126 112.751 16.07 112.569 16L110.994 12.115L109.902 15.223C109.664 15.909 109.111 16.252 108.243 16.252ZM124.462 16.252C123.454 16.252 122.558 16.049 121.774 15.643C121.004 15.237 120.402 14.677 119.968 13.963C119.534 13.249 119.317 12.423 119.317 11.485C119.317 10.491 119.555 9.602 120.031 8.818C120.507 8.034 121.158 7.418 121.984 6.97C122.81 6.522 123.748 6.298 124.798 6.298C126.17 6.298 127.255 6.69 128.053 7.474C128.865 8.258 129.271 9.315 129.271 10.645C129.271 11.079 129.222 11.359 129.124 11.485C129.026 11.611 128.816 11.674 128.494 11.674H123.475C123.783 13.368 124.77 14.215 126.436 14.215C126.884 14.215 127.304 14.145 127.696 14.005C128.088 13.865 128.522 13.634 128.998 13.312L129.397 14.362C129.061 14.726 128.627 15.055 128.095 15.349C127.563 15.629 126.982 15.846 126.352 16C125.736 16.168 125.106 16.252 124.462 16.252ZM124.672 7.621C124.294 7.621 123.986 7.859 123.748 8.335C123.51 8.797 123.384 9.434 123.37 10.246L125.827 10.162C125.771 8.468 125.386 7.621 124.672 7.621ZM130.443 16C130.443 15.118 130.555 14.635 130.779 14.551L131.955 14.068V2.686L130.779 2.35C130.555 2.28 130.443 1.811 130.443 0.943C131.059 0.844999 131.675 0.760999 132.291 0.690999C132.921 0.620999 133.6 0.585999 134.328 0.585999C135.294 0.585999 135.777 1.09 135.777 2.098V13.963L137.499 14.404C137.499 14.712 137.464 14.985 137.394 15.223C137.338 15.461 137.233 15.72 137.079 16H130.443ZM138.243 16C138.243 15.132 138.355 14.649 138.579 14.551L139.545 14.068V8.44L138.264 8.398C138.264 8.048 138.299 7.705 138.369 7.369C138.453 7.033 138.565 6.816 138.705 6.718L139.671 6.655C139.811 5.815 140.056 5.031 140.406 4.303C140.77 3.561 141.211 2.917 141.729 2.371C142.247 1.811 142.814 1.377 143.43 1.069C144.046 0.746999 144.676 0.585999 145.32 0.585999C145.922 0.585999 146.398 0.732999 146.748 1.027C147.098 1.321 147.273 1.72 147.273 2.224C147.273 2.42 147.238 2.637 147.168 2.875C147.112 3.099 147.028 3.302 146.916 3.484H145.908C144.928 3.484 144.263 3.701 143.913 4.135C143.563 4.569 143.388 5.325 143.388 6.403V6.445L145.74 6.298C145.824 6.48 145.866 6.69 145.866 6.928C145.866 7.348 145.803 7.719 145.677 8.041C145.565 8.349 145.39 8.552 145.152 8.65L143.388 8.587V13.942L145.089 14.404C145.089 14.712 145.054 14.985 144.984 15.223C144.928 15.461 144.823 15.72 144.669 16H138.243ZM148.444 16.252C147.814 16.252 147.289 16.049 146.869 15.643C146.463 15.223 146.26 14.691 146.26 14.047C146.26 13.263 146.526 12.605 147.058 12.073C147.604 11.527 148.388 11.142 149.41 10.918L151.972 10.33V9.532C151.972 8.832 151.895 8.342 151.741 8.062C151.601 7.782 151.342 7.642 150.964 7.642C150.53 7.642 150.201 7.81 149.977 8.146C149.767 8.482 149.648 9.021 149.62 9.763C149.508 9.903 149.326 10.015 149.074 10.099C148.836 10.183 148.57 10.225 148.276 10.225C147.786 10.225 147.408 10.113 147.142 9.889C146.876 9.651 146.743 9.336 146.743 8.944C146.743 8.44 146.946 7.992 147.352 7.6C147.772 7.194 148.339 6.879 149.053 6.655C149.781 6.417 150.593 6.298 151.489 6.298C152.861 6.298 153.918 6.592 154.66 7.18C155.416 7.754 155.794 8.573 155.794 9.637V13.459C155.794 13.725 155.836 13.914 155.92 14.026C156.018 14.138 156.193 14.194 156.445 14.194C156.571 14.194 156.697 14.18 156.823 14.152C156.949 14.11 157.047 14.075 157.117 14.047L157.39 15.139C157.012 15.461 156.55 15.727 156.004 15.937C155.458 16.147 154.947 16.252 154.471 16.252C153.757 16.252 153.197 16.084 152.791 15.748C152.399 15.398 152.203 14.929 152.203 14.341H152.014C151.552 14.915 150.992 15.377 150.334 15.727C149.676 16.077 149.046 16.252 148.444 16.252ZM150.418 14.089C150.628 14.089 150.88 14.019 151.174 13.879C151.482 13.739 151.762 13.571 152.014 13.375V11.674L150.607 12.01C150.271 12.08 150.012 12.22 149.83 12.43C149.648 12.64 149.557 12.885 149.557 13.165C149.557 13.431 149.634 13.655 149.788 13.837C149.956 14.005 150.166 14.089 150.418 14.089ZM158.238 16C158.238 15.132 158.35 14.649 158.574 14.551L159.54 14.068V8.629L158.574 8.293C158.476 8.265 158.392 8.125 158.322 7.873C158.266 7.621 158.238 7.292 158.238 6.886C159.106 6.746 159.778 6.655 160.254 6.613C160.73 6.557 161.122 6.529 161.43 6.529C162.102 6.529 162.557 6.648 162.795 6.886C163.033 7.11 163.152 7.544 163.152 8.188V8.377H163.299C163.579 7.733 163.95 7.229 164.412 6.865C164.874 6.487 165.364 6.298 165.882 6.298C167.226 6.298 167.898 6.9 167.898 8.104C167.898 8.58 167.723 8.986 167.373 9.322C167.023 9.658 166.603 9.826 166.113 9.826C165.973 9.504 165.805 9.273 165.609 9.133C165.413 8.993 165.175 8.923 164.895 8.923C164.657 8.923 164.391 8.986 164.097 9.112C163.817 9.238 163.572 9.42 163.362 9.658V13.921L165.084 14.404C165.084 14.712 165.049 14.985 164.979 15.223C164.923 15.461 164.818 15.72 164.664 16H158.238ZM173.476 16.252C172.468 16.252 171.572 16.049 170.788 15.643C170.018 15.237 169.416 14.677 168.982 13.963C168.548 13.249 168.331 12.423 168.331 11.485C168.331 10.491 168.569 9.602 169.045 8.818C169.521 8.034 170.172 7.418 170.998 6.97C171.824 6.522 172.762 6.298 173.812 6.298C175.184 6.298 176.269 6.69 177.067 7.474C177.879 8.258 178.285 9.315 178.285 10.645C178.285 11.079 178.236 11.359 178.138 11.485C178.04 11.611 177.83 11.674 177.508 11.674H172.489C172.797 13.368 173.784 14.215 175.45 14.215C175.898 14.215 176.318 14.145 176.71 14.005C177.102 13.865 177.536 13.634 178.012 13.312L178.411 14.362C178.075 14.726 177.641 15.055 177.109 15.349C176.577 15.629 175.996 15.846 175.366 16C174.75 16.168 174.12 16.252 173.476 16.252ZM173.686 7.621C173.308 7.621 173 7.859 172.762 8.335C172.524 8.797 172.398 9.434 172.384 10.246L174.841 10.162C174.785 8.468 174.4 7.621 173.686 7.621ZM45.315 40.04C45.315 39.172 45.427 38.689 45.651 38.591L46.617 38.108V27.629L45.651 27.293C45.427 27.223 45.315 26.754 45.315 25.886C46.141 25.76 46.799 25.669 47.289 25.613C47.779 25.557 48.185 25.529 48.507 25.529C49.109 25.529 49.543 25.648 49.809 25.886C50.089 26.124 50.229 26.509 50.229 27.041V27.167H50.439C50.775 26.607 51.272 26.159 51.93 25.823C52.602 25.473 53.281 25.298 53.967 25.298C54.667 25.298 55.283 25.487 55.815 25.865C56.347 26.243 56.76 26.775 57.054 27.461C57.348 28.133 57.495 28.924 57.495 29.834C57.495 30.926 57.292 31.878 56.886 32.69C56.48 33.502 55.906 34.132 55.164 34.58C54.436 35.028 53.575 35.252 52.581 35.252C51.867 35.252 51.153 35.14 50.439 34.916V38.003L52.161 38.444C52.161 38.752 52.126 39.025 52.056 39.263C52 39.501 51.895 39.76 51.741 40.04H45.315ZM51.552 33.656C52.154 33.656 52.616 33.369 52.938 32.795C53.274 32.221 53.442 31.416 53.442 30.38C53.442 28.532 52.924 27.608 51.888 27.608C51.524 27.608 51.216 27.706 50.964 27.902C50.726 28.098 50.523 28.308 50.355 28.532V33.173C50.691 33.495 51.09 33.656 51.552 33.656ZM58.5425 35C58.5425 34.118 58.6545 33.635 58.8785 33.551L60.0545 33.068V21.686L58.8785 21.35C58.6545 21.28 58.5425 20.811 58.5425 19.943C59.1585 19.845 59.7745 19.761 60.3905 19.691C61.0205 19.621 61.6995 19.586 62.4275 19.586C63.3935 19.586 63.8765 20.09 63.8765 21.098V32.963L65.5985 33.404C65.5985 33.712 65.5635 33.985 65.4935 34.223C65.4375 34.461 65.3325 34.72 65.1785 35H58.5425ZM68.4429 35.252C67.8129 35.252 67.2879 35.049 66.8679 34.643C66.4619 34.223 66.2589 33.691 66.2589 33.047C66.2589 32.263 66.5249 31.605 67.0569 31.073C67.6029 30.527 68.3869 30.142 69.4089 29.918L71.9709 29.33V28.532C71.9709 27.832 71.8939 27.342 71.7399 27.062C71.5999 26.782 71.3409 26.642 70.9629 26.642C70.5289 26.642 70.1999 26.81 69.9759 27.146C69.7659 27.482 69.6469 28.021 69.6189 28.763C69.5069 28.903 69.3249 29.015 69.0729 29.099C68.8349 29.183 68.5689 29.225 68.2749 29.225C67.7849 29.225 67.4069 29.113 67.1409 28.889C66.8749 28.651 66.7419 28.336 66.7419 27.944C66.7419 27.44 66.9449 26.992 67.3509 26.6C67.7709 26.194 68.3379 25.879 69.0519 25.655C69.7799 25.417 70.5919 25.298 71.4879 25.298C72.8599 25.298 73.9169 25.592 74.6589 26.18C75.4149 26.754 75.7929 27.573 75.7929 28.637V32.459C75.7929 32.725 75.8349 32.914 75.9189 33.026C76.0169 33.138 76.1919 33.194 76.4439 33.194C76.5699 33.194 76.6959 33.18 76.8219 33.152C76.9479 33.11 77.0459 33.075 77.1159 33.047L77.3889 34.139C77.0109 34.461 76.5489 34.727 76.0029 34.937C75.4569 35.147 74.9459 35.252 74.4699 35.252C73.7559 35.252 73.1959 35.084 72.7899 34.748C72.3979 34.398 72.2019 33.929 72.2019 33.341H72.0129C71.5509 33.915 70.9909 34.377 70.3329 34.727C69.6749 35.077 69.0449 35.252 68.4429 35.252ZM70.4169 33.089C70.6269 33.089 70.8789 33.019 71.1729 32.879C71.4809 32.739 71.7609 32.571 72.0129 32.375V30.674L70.6059 31.01C70.2699 31.08 70.0109 31.22 69.8289 31.43C69.6469 31.64 69.5559 31.885 69.5559 32.165C69.5559 32.431 69.6329 32.655 69.7869 32.837C69.9549 33.005 70.1649 33.089 70.4169 33.089ZM79.0873 40.67C78.5693 40.67 78.1353 40.523 77.7853 40.229C77.4353 39.935 77.2603 39.529 77.2603 39.011C77.2603 38.843 77.2883 38.64 77.3443 38.402C77.4143 38.164 77.5053 37.961 77.6173 37.793H77.9743C78.7723 37.793 79.4093 37.737 79.8853 37.625C80.3613 37.513 80.7323 37.317 80.9983 37.037C81.2783 36.771 81.5093 36.4 81.6913 35.924L78.3943 27.629L77.2603 27.293C77.2603 26.971 77.2883 26.691 77.3443 26.453C77.4143 26.215 77.5263 25.963 77.6803 25.697H83.3713C83.3713 26.649 83.2593 27.167 83.0353 27.251L82.2373 27.524L83.6233 30.989L84.9673 27.587L84.0013 27.293C84.0013 26.831 84.0293 26.495 84.0853 26.285C84.1413 26.061 84.2463 25.865 84.4003 25.697H88.1173C88.1173 26.159 88.0893 26.502 88.0333 26.726C87.9773 26.95 87.8933 27.09 87.7813 27.146L87.0253 27.461L83.8333 35.651C83.2593 37.177 82.5663 38.395 81.7543 39.305C80.9423 40.215 80.0533 40.67 79.0873 40.67ZM93.7433 35.252C93.0013 35.252 92.2313 35.175 91.4333 35.021C90.6493 34.881 89.9283 34.678 89.2703 34.412V21.686L88.3043 21.35C88.0663 21.28 87.9473 20.811 87.9473 19.943C88.7873 19.817 89.4523 19.726 89.9423 19.67C90.4323 19.614 90.8383 19.586 91.1603 19.586C91.7623 19.586 92.1963 19.705 92.4623 19.943C92.7423 20.181 92.8823 20.566 92.8823 21.098V27.167H93.0923C93.4283 26.607 93.9253 26.159 94.5833 25.823C95.2553 25.473 95.9343 25.298 96.6203 25.298C97.3203 25.298 97.9363 25.487 98.4683 25.865C99.0003 26.243 99.4133 26.775 99.7073 27.461C100.001 28.133 100.148 28.924 100.148 29.834C100.148 30.926 99.8823 31.878 99.3503 32.69C98.8183 33.502 98.0693 34.132 97.1033 34.58C96.1513 35.028 95.0313 35.252 93.7433 35.252ZM94.2053 33.656C94.8073 33.656 95.2693 33.369 95.5913 32.795C95.9273 32.221 96.0953 31.416 96.0953 30.38C96.0953 28.532 95.5773 27.608 94.5413 27.608C94.1773 27.608 93.8693 27.706 93.6173 27.902C93.3793 28.098 93.1763 28.308 93.0083 28.532V33.173C93.3443 33.495 93.7433 33.656 94.2053 33.656ZM106.659 35.252C105.077 35.252 103.838 34.853 102.942 34.055C102.06 33.257 101.619 32.144 101.619 30.716C101.619 29.638 101.864 28.693 102.354 27.881C102.858 27.069 103.551 26.439 104.433 25.991C105.329 25.529 106.365 25.298 107.541 25.298C108.605 25.298 109.529 25.487 110.313 25.865C111.097 26.243 111.699 26.782 112.119 27.482C112.553 28.168 112.77 28.987 112.77 29.939C112.77 30.975 112.511 31.899 111.993 32.711C111.475 33.509 110.754 34.132 109.83 34.58C108.92 35.028 107.863 35.252 106.659 35.252ZM107.247 33.929C107.737 33.929 108.108 33.635 108.36 33.047C108.612 32.459 108.738 31.619 108.738 30.527C108.738 29.323 108.591 28.371 108.297 27.671C108.003 26.971 107.597 26.621 107.079 26.621C106.617 26.621 106.26 26.922 106.008 27.524C105.77 28.112 105.651 28.966 105.651 30.086C105.651 31.318 105.784 32.27 106.05 32.942C106.33 33.6 106.729 33.929 107.247 33.929ZM119.271 35.252C117.689 35.252 116.45 34.853 115.554 34.055C114.672 33.257 114.231 32.144 114.231 30.716C114.231 29.638 114.476 28.693 114.966 27.881C115.47 27.069 116.163 26.439 117.045 25.991C117.941 25.529 118.977 25.298 120.153 25.298C121.217 25.298 122.141 25.487 122.925 25.865C123.709 26.243 124.311 26.782 124.731 27.482C125.165 28.168 125.382 28.987 125.382 29.939C125.382 30.975 125.123 31.899 124.605 32.711C124.087 33.509 123.366 34.132 122.442 34.58C121.532 35.028 120.475 35.252 119.271 35.252ZM119.859 33.929C120.349 33.929 120.72 33.635 120.972 33.047C121.224 32.459 121.35 31.619 121.35 30.527C121.35 29.323 121.203 28.371 120.909 27.671C120.615 26.971 120.209 26.621 119.691 26.621C119.229 26.621 118.872 26.922 118.62 27.524C118.382 28.112 118.263 28.966 118.263 30.086C118.263 31.318 118.396 32.27 118.662 32.942C118.942 33.6 119.341 33.929 119.859 33.929ZM126.423 35C126.423 34.118 126.535 33.635 126.759 33.551L127.935 33.068V21.686L126.759 21.35C126.535 21.28 126.423 20.811 126.423 19.943C127.039 19.845 127.655 19.761 128.271 19.691C128.901 19.621 129.58 19.586 130.308 19.586C131.274 19.586 131.757 20.09 131.757 21.098V29.729L134.109 27.608L132.912 27.293C132.912 26.705 133.052 26.173 133.332 25.697H138.96C138.96 26.201 138.932 26.558 138.876 26.768C138.834 26.978 138.75 27.104 138.624 27.146L136.713 27.818L135.033 29.372C135.663 30.198 136.37 30.975 137.154 31.703C137.938 32.431 138.687 33.005 139.401 33.425C139.401 33.985 139.177 34.433 138.729 34.769C138.295 35.091 137.728 35.252 137.028 35.252C136.44 35.252 135.88 35.105 135.348 34.811C134.83 34.517 134.284 34.02 133.71 33.32C133.15 32.606 132.499 31.626 131.757 30.38V33.173L132.639 33.404C132.639 33.712 132.604 33.985 132.534 34.223C132.478 34.461 132.373 34.72 132.219 35H126.423Z" fill="#333240"/>
<g id="Logo Dots">
<circle id="Ellipse 16" cx="20" cy="20" r="16" fill="white"/>
<circle id="Ellipse 12" cx="15.3549" cy="17.3274" r="7.72014" fill="#333240"/>
<path id="Ellipse 13" d="M7.46391 22.6457C7.46391 24.5407 5.92772 26.0769 4.03274 26.0769C2.13775 26.0769 0.601562 24.5407 0.601562 22.6457C0.601562 20.7507 2.13775 19.2145 4.03274 19.2145C5.92772 19.2145 7.46391 20.7507 7.46391 22.6457Z" fill="#58595B"/>
<path id="Ellipse 16_2" d="M31.4825 7.03384C31.4825 8.92882 29.9463 10.465 28.0513 10.465C26.1563 10.465 24.6201 8.92882 24.6201 7.03384C24.6201 5.13885 26.1563 3.60266 28.0513 3.60266C29.9463 3.60266 31.4825 5.13885 31.4825 7.03384Z" fill="#A59A96"/>
<circle id="Ellipse 14" cx="30.7964" cy="28.6502" r="3.43118" fill="#FE6659"/>
<circle id="Ellipse 15" cx="25.6492" cy="21.788" r="1.71559" fill="#F4B413"/>
<path id="Subtract" fill-rule="evenodd" clip-rule="evenodd" d="M26.0128 36.3108C26.0192 36.1591 26.0225 36.0066 26.0225 35.8534C26.0225 29.9802 21.2613 25.2191 15.3882 25.2191C9.515 25.2191 4.75387 29.9802 4.75387 35.8534C4.75387 36.0066 4.75711 36.1591 4.76353 36.3108L26.0128 36.3108Z" fill="#333240"/>
</g>
</g>
</svg>