<svg width="33" height="31" viewBox="0 0 33 31" fill="none" xmlns="http://www.w3.org/2000/svg">
<circle cx="18.0279" cy="15.2388" r="14.8697" fill="white"/>
<circle cx="13.7109" cy="12.7548" r="7.17475" fill="#333240"/>
<path d="M6.37755 17.6976C6.37755 19.4587 4.94989 20.8863 3.18878 20.8863C1.42766 20.8863 0 19.4587 0 17.6976C0 15.9365 1.42766 14.5088 3.18878 14.5088C4.94989 14.5088 6.37755 15.9365 6.37755 17.6976Z" fill="#58595B"/>
<path d="M28.6988 3.18878C28.6988 4.94989 27.2712 6.37755 25.5101 6.37755C23.749 6.37755 22.3213 4.94989 22.3213 3.18878C22.3213 1.42766 23.749 0 25.5101 0C27.2712 0 28.6988 1.42766 28.6988 3.18878Z" fill="#A59A96"/>
<circle cx="28.0618" cy="23.2776" r="3.18878" fill="#FE6659"/>
<circle cx="23.278" cy="16.901" r="1.59439" fill="#F4B413"/>
<path fill-rule="evenodd" clip-rule="evenodd" d="M23.617 30.3973C23.623 30.2563 23.626 30.1144 23.626 29.9719C23.626 24.5136 19.2012 20.0889 13.743 20.0889C8.28471 20.0889 3.85992 24.5136 3.85992 29.9719C3.85992 30.1144 3.86294 30.2563 3.86892 30.3973L23.617 30.3973Z" fill="#333240"/>
</svg>
