<svg xmlns="http://www.w3.org/2000/svg" fill="none" viewBox="0.6 0.59 177.81 40.08"><path fill="#333240" d="M50.901 16.252c-1.022 0-1.925-.196-2.709-.588a4.548 4.548 0 0 1-1.806-1.68c-.434-.714-.651-1.54-.651-2.478 0-1.008.238-1.904.714-2.688a5.18 5.18 0 0 1 1.995-1.848c.854-.448 1.813-.672 2.877-.672.812 0 1.547.126 2.205.378.658.252 1.183.588 1.575 1.008.392.42.588.889.588 1.407 0 .42-.154.749-.462.987-.308.238-.735.357-1.281.357-.49 0-.924-.126-1.302-.378 0-1.624-.441-2.436-1.323-2.436-.49 0-.875.266-1.155.798-.266.532-.399 1.295-.399 2.289 0 1.218.217 2.107.651 2.667.448.56 1.141.84 2.079.84.476 0 .938-.07 1.386-.21.448-.14.952-.371 1.512-.693l.399 1.05c-.336.364-.77.693-1.302.987A7.2 7.2 0 0 1 52.77 16a7.073 7.073 0 0 1-1.869.252ZM56.533 16c0-.868.112-1.351.336-1.449l.966-.483V2.686l-.966-.336c-.224-.07-.336-.539-.336-1.407A55.85 55.85 0 0 1 58.507.67c.49-.056.896-.084 1.218-.084.602 0 1.036.119 1.302.357.28.238.42.623.42 1.155v6.069h.21c.672-.588 1.358-1.043 2.058-1.365.7-.336 1.35-.504 1.953-.504 1.596 0 2.394 1.057 2.394 3.171v4.494l1.302.441c0 .308-.035.581-.105.819a3.122 3.122 0 0 1-.315.777h-5.586c0-.868.112-1.351.336-1.449l.546-.273v-4.2c0-.826-.294-1.239-.882-1.239-.406 0-.763.112-1.071.336-.308.21-.518.364-.63.462v4.515l.882.252c0 .308-.035.581-.105.819a3.122 3.122 0 0 1-.315.777h-5.586Zm13.89 0c0-.882.113-1.365.337-1.449l1.176-.483v-5.67l-1.176-.336c-.224-.07-.336-.539-.336-1.407a41.8 41.8 0 0 1 1.848-.252c.63-.07 1.309-.105 2.037-.105.966 0 1.449.504 1.449 1.512v6.153l1.722.441c0 .308-.035.581-.105.819a3.122 3.122 0 0 1-.315.777h-6.636Zm3.298-11.109c-.644 0-1.134-.182-1.47-.546-.336-.364-.504-.84-.504-1.428 0-.574.196-1.043.588-1.407.406-.378.868-.567 1.386-.567.658 0 1.155.182 1.49.546.35.364.526.84.526 1.428 0 .56-.203 1.029-.61 1.407a2.003 2.003 0 0 1-1.406.567ZM78.004 16c0-.882.112-1.365.337-1.449l1.175-.483V2.686l-1.175-.336c-.224-.07-.337-.539-.337-1.407a41.799 41.799 0 0 1 1.849-.252c.63-.07 1.309-.105 2.037-.105.966 0 1.448.504 1.448 1.512v11.865l1.723.441c0 .308-.036.581-.106.819a3.122 3.122 0 0 1-.314.777h-6.637Zm11.455.252c-.7 0-1.323-.189-1.87-.567-.531-.378-.944-.903-1.238-1.575-.294-.686-.441-1.484-.441-2.394 0-1.092.203-2.044.609-2.856a4.507 4.507 0 0 1 1.722-1.89c.742-.448 1.603-.672 2.583-.672.714 0 1.428.112 2.142.336V2.686L91.79 2.35c-.224-.07-.336-.539-.336-1.407A42.234 42.234 0 0 1 93.428.67 13.07 13.07 0 0 1 94.75.586c.7 0 1.21.119 1.533.357.336.238.504.623.504 1.155v11.361c0 .266.049.455.147.567.098.112.266.168.504.168.14 0 .273-.014.399-.042a2.29 2.29 0 0 0 .273-.105l.273 1.092a4.77 4.77 0 0 1-1.407.819 4.709 4.709 0 0 1-1.596.294c-.658 0-1.19-.168-1.596-.504-.392-.35-.588-.819-.588-1.407h-.19c-.335.56-.84 1.022-1.511 1.386a4.286 4.286 0 0 1-2.037.525Zm2.058-2.31c.364 0 .665-.098.903-.294.252-.196.462-.406.63-.63V8.377a1.671 1.671 0 0 0-1.197-.483c-.602 0-1.071.287-1.407.861-.336.574-.504 1.379-.504 2.415 0 1.848.525 2.772 1.575 2.772Zm16.726 2.31c-.224 0-.469-.028-.735-.084a3.371 3.371 0 0 1-.651-.168l-2.541-7.371-1.113-.336c0-.322.028-.602.084-.84.07-.238.182-.49.336-.756h5.691c0 .952-.112 1.47-.336 1.554l-.861.294 1.092 3.255 1.554-4.452h1.974l1.953 4.767 1.134-3.507-1.008-.315c0-.462.028-.798.084-1.008.056-.224.161-.42.315-.588h3.717c0 .462-.028.805-.084 1.029-.056.224-.14.364-.252.42l-.735.315-2.247 6.762c-.224.686-.777 1.029-1.659 1.029-.224 0-.469-.028-.735-.084a3.371 3.371 0 0 1-.651-.168l-1.575-3.885-1.092 3.108c-.238.686-.791 1.029-1.659 1.029Zm16.219 0c-1.008 0-1.904-.203-2.688-.609a4.548 4.548 0 0 1-1.806-1.68c-.434-.714-.651-1.54-.651-2.478 0-.994.238-1.883.714-2.667a5.063 5.063 0 0 1 1.953-1.848c.826-.448 1.764-.672 2.814-.672 1.372 0 2.457.392 3.255 1.176.812.784 1.218 1.841 1.218 3.171 0 .434-.049.714-.147.84-.098.126-.308.189-.63.189h-5.019c.308 1.694 1.295 2.541 2.961 2.541.448 0 .868-.07 1.26-.21.392-.14.826-.371 1.302-.693l.399 1.05c-.336.364-.77.693-1.302.987a7.601 7.601 0 0 1-1.743.651 7.151 7.151 0 0 1-1.89.252Zm.21-8.631c-.378 0-.686.238-.924.714-.238.462-.364 1.099-.378 1.911l2.457-.084c-.056-1.694-.441-2.541-1.155-2.541ZM130.443 16c0-.882.112-1.365.336-1.449l1.176-.483V2.686l-1.176-.336c-.224-.07-.336-.539-.336-1.407a41.799 41.799 0 0 1 1.848-.252c.63-.07 1.309-.105 2.037-.105.966 0 1.449.504 1.449 1.512v11.865l1.722.441c0 .308-.035.581-.105.819a3.122 3.122 0 0 1-.315.777h-6.636Zm7.8 0c0-.868.112-1.351.336-1.449l.966-.483V8.44l-1.281-.042c0-.35.035-.693.105-1.029.084-.336.196-.553.336-.651l.966-.063c.14-.84.385-1.624.735-2.352a7.726 7.726 0 0 1 1.323-1.932 5.935 5.935 0 0 1 1.701-1.302 4.036 4.036 0 0 1 1.89-.483c.602 0 1.078.147 1.428.441.35.294.525.693.525 1.197 0 .196-.035.413-.105.651-.056.224-.14.427-.252.609h-1.008c-.98 0-1.645.217-1.995.651-.35.434-.525 1.19-.525 2.268v.042l2.352-.147c.084.182.126.392.126.63 0 .42-.063.791-.189 1.113-.112.308-.287.511-.525.609l-1.764-.063v5.355l1.701.462c0 .308-.035.581-.105.819a3.122 3.122 0 0 1-.315.777h-6.426Zm10.201.252c-.63 0-1.155-.203-1.575-.609-.406-.42-.609-.952-.609-1.596 0-.784.266-1.442.798-1.974.546-.546 1.33-.931 2.352-1.155l2.562-.588v-.798c0-.7-.077-1.19-.231-1.47-.14-.28-.399-.42-.777-.42-.434 0-.763.168-.987.504-.21.336-.329.875-.357 1.617-.112.14-.294.252-.546.336a2.386 2.386 0 0 1-.798.126c-.49 0-.868-.112-1.134-.336-.266-.238-.399-.553-.399-.945 0-.504.203-.952.609-1.344.42-.406.987-.721 1.701-.945.728-.238 1.54-.357 2.436-.357 1.372 0 2.429.294 3.171.882.756.574 1.134 1.393 1.134 2.457v3.822c0 .266.042.455.126.567.098.112.273.168.525.168.126 0 .252-.014.378-.042.126-.042.224-.077.294-.105l.273 1.092a4.74 4.74 0 0 1-1.386.798c-.546.21-1.057.315-1.533.315-.714 0-1.274-.168-1.68-.504-.392-.35-.588-.819-.588-1.407h-.189a5.37 5.37 0 0 1-1.68 1.386c-.658.35-1.288.525-1.89.525Zm1.974-2.163c.21 0 .462-.07.756-.21.308-.14.588-.308.84-.504v-1.701l-1.407.336c-.336.07-.595.21-.777.42-.182.21-.273.455-.273.735 0 .266.077.49.231.672a.855.855 0 0 0 .63.252Zm7.82 1.911c0-.868.112-1.351.336-1.449l.966-.483V8.629l-.966-.336c-.098-.028-.182-.168-.252-.42a4.703 4.703 0 0 1-.084-.987c.868-.14 1.54-.231 2.016-.273a10.44 10.44 0 0 1 1.176-.084c.672 0 1.127.119 1.365.357.238.224.357.658.357 1.302v.189h.147c.28-.644.651-1.148 1.113-1.512.462-.378.952-.567 1.47-.567 1.344 0 2.016.602 2.016 1.806 0 .476-.175.882-.525 1.218-.35.336-.77.504-1.26.504-.14-.322-.308-.553-.504-.693a1.196 1.196 0 0 0-.714-.21c-.238 0-.504.063-.798.189-.28.126-.525.308-.735.546v4.263l1.722.483c0 .308-.035.581-.105.819a3.122 3.122 0 0 1-.315.777h-6.426Zm15.238.252c-1.008 0-1.904-.203-2.688-.609a4.548 4.548 0 0 1-1.806-1.68c-.434-.714-.651-1.54-.651-2.478 0-.994.238-1.883.714-2.667a5.063 5.063 0 0 1 1.953-1.848c.826-.448 1.764-.672 2.814-.672 1.372 0 2.457.392 3.255 1.176.812.784 1.218 1.841 1.218 3.171 0 .434-.049.714-.147.84-.098.126-.308.189-.63.189h-5.019c.308 1.694 1.295 2.541 2.961 2.541.448 0 .868-.07 1.26-.21.392-.14.826-.371 1.302-.693l.399 1.05c-.336.364-.77.693-1.302.987a7.601 7.601 0 0 1-1.743.651 7.151 7.151 0 0 1-1.89.252Zm.21-8.631c-.378 0-.686.238-.924.714-.238.462-.364 1.099-.378 1.911l2.457-.084c-.056-1.694-.441-2.541-1.155-2.541ZM45.315 40.04c0-.868.112-1.351.336-1.449l.966-.483V27.629l-.966-.336c-.224-.07-.336-.539-.336-1.407a55.85 55.85 0 0 1 1.974-.273c.49-.056.896-.084 1.218-.084.602 0 1.036.119 1.302.357.28.238.42.623.42 1.155v.126h.21c.336-.56.833-1.008 1.491-1.344.672-.35 1.351-.525 2.037-.525.7 0 1.316.189 1.848.567.532.378.945.91 1.239 1.596.294.672.441 1.463.441 2.373 0 1.092-.203 2.044-.609 2.856a4.507 4.507 0 0 1-1.722 1.89c-.728.448-1.589.672-2.583.672a7.122 7.122 0 0 1-2.142-.336v3.087l1.722.441c0 .308-.035.581-.105.819a3.122 3.122 0 0 1-.315.777h-6.426Zm6.237-6.384c.602 0 1.064-.287 1.386-.861.336-.574.504-1.379.504-2.415 0-1.848-.518-2.772-1.554-2.772-.364 0-.672.098-.924.294a3.678 3.678 0 0 0-.609.63v4.641c.336.322.735.483 1.197.483ZM58.542 35c0-.882.112-1.365.337-1.449l1.175-.483V21.686l-1.175-.336c-.224-.07-.337-.539-.337-1.407a41.8 41.8 0 0 1 1.849-.252c.63-.07 1.309-.105 2.037-.105.966 0 1.449.504 1.449 1.512v11.865l1.721.441c0 .308-.034.581-.105.819a3.122 3.122 0 0 1-.314.777h-6.637Zm9.9.252c-.63 0-1.154-.203-1.574-.609-.406-.42-.61-.952-.61-1.596 0-.784.267-1.442.799-1.974.546-.546 1.33-.931 2.352-1.155l2.562-.588v-.798c0-.7-.077-1.19-.231-1.47-.14-.28-.4-.42-.777-.42-.434 0-.763.168-.987.504-.21.336-.33.875-.357 1.617-.112.14-.294.252-.546.336a2.386 2.386 0 0 1-.798.126c-.49 0-.868-.112-1.134-.336-.266-.238-.4-.553-.4-.945 0-.504.204-.952.61-1.344.42-.406.987-.721 1.7-.945.729-.238 1.54-.357 2.437-.357 1.372 0 2.429.294 3.17.882.757.574 1.135 1.393 1.135 2.457v3.822c0 .266.042.455.126.567.098.112.273.168.525.168.126 0 .252-.014.378-.042.126-.042.224-.077.294-.105l.273 1.092a4.74 4.74 0 0 1-1.386.798c-.546.21-1.057.315-1.533.315-.714 0-1.274-.168-1.68-.504-.392-.35-.588-.819-.588-1.407h-.19a5.37 5.37 0 0 1-1.68 1.386c-.657.35-1.287.525-1.89.525Zm1.975-2.163c.21 0 .462-.07.756-.21.308-.14.588-.308.84-.504v-1.701l-1.407.336c-.336.07-.595.21-.777.42-.182.21-.273.455-.273.735 0 .266.077.49.23.672a.855.855 0 0 0 .63.252Zm8.67 7.581c-.518 0-.952-.147-1.302-.441-.35-.294-.525-.7-.525-1.218 0-.168.028-.371.084-.609.07-.238.161-.441.273-.609h.357c.798 0 1.435-.056 1.911-.168.476-.112.847-.308 1.113-.588.28-.266.511-.637.693-1.113l-3.297-8.295-1.134-.336c0-.322.028-.602.084-.84.07-.238.182-.49.336-.756h5.691c0 .952-.112 1.47-.336 1.554l-.798.273 1.386 3.465 1.344-3.402-.966-.294c0-.462.028-.798.084-1.008.056-.224.161-.42.315-.588h3.717c0 .462-.028.805-.084 1.029-.056.224-.14.364-.252.42l-.756.315-3.192 8.19c-.574 1.526-1.267 2.744-2.079 3.654-.812.91-1.7 1.365-2.667 1.365Zm14.656-5.418c-.742 0-1.512-.077-2.31-.231a10.849 10.849 0 0 1-2.163-.609V21.686l-.966-.336c-.238-.07-.357-.539-.357-1.407.84-.126 1.505-.217 1.995-.273.49-.056.896-.084 1.218-.084.602 0 1.036.119 1.302.357.28.238.42.623.42 1.155v6.069h.21c.336-.56.833-1.008 1.491-1.344.672-.35 1.351-.525 2.037-.525.7 0 1.316.189 1.848.567.532.378.945.91 1.24 1.596.293.672.44 1.463.44 2.373 0 1.092-.266 2.044-.798 2.856-.532.812-1.28 1.442-2.247 1.89-.952.448-2.072.672-3.36.672Zm.462-1.596c.602 0 1.064-.287 1.386-.861.336-.574.504-1.379.504-2.415 0-1.848-.518-2.772-1.554-2.772-.364 0-.672.098-.924.294a3.678 3.678 0 0 0-.609.63v4.641c.336.322.735.483 1.197.483Zm12.454 1.596c-1.582 0-2.821-.399-3.717-1.197-.882-.798-1.323-1.911-1.323-3.339 0-1.078.245-2.023.735-2.835a5.123 5.123 0 0 1 2.079-1.89c.896-.462 1.932-.693 3.108-.693 1.064 0 1.988.189 2.772.567.784.378 1.386.917 1.806 1.617.434.686.651 1.505.651 2.457 0 1.036-.259 1.96-.777 2.772-.518.798-1.239 1.421-2.163 1.869-.91.448-1.967.672-3.171.672Zm.588-1.323c.49 0 .861-.294 1.113-.882.252-.588.378-1.428.378-2.52 0-1.204-.147-2.156-.441-2.856-.294-.7-.7-1.05-1.218-1.05-.462 0-.819.301-1.071.903-.238.588-.357 1.442-.357 2.562 0 1.232.133 2.184.399 2.856.28.658.679.987 1.197.987Zm12.024 1.323c-1.582 0-2.821-.399-3.717-1.197-.882-.798-1.323-1.911-1.323-3.339 0-1.078.245-2.023.735-2.835a5.123 5.123 0 0 1 2.079-1.89c.896-.462 1.932-.693 3.108-.693 1.064 0 1.988.189 2.772.567.784.378 1.386.917 1.806 1.617.434.686.651 1.505.651 2.457 0 1.036-.259 1.96-.777 2.772-.518.798-1.239 1.421-2.163 1.869-.91.448-1.967.672-3.171.672Zm.588-1.323c.49 0 .861-.294 1.113-.882.252-.588.378-1.428.378-2.52 0-1.204-.147-2.156-.441-2.856-.294-.7-.7-1.05-1.218-1.05-.462 0-.819.301-1.071.903-.238.588-.357 1.442-.357 2.562 0 1.232.133 2.184.399 2.856.28.658.679.987 1.197.987ZM126.423 35c0-.882.112-1.365.336-1.449l1.176-.483V21.686l-1.176-.336c-.224-.07-.336-.539-.336-1.407a41.8 41.8 0 0 1 1.848-.252c.63-.07 1.309-.105 2.037-.105.966 0 1.449.504 1.449 1.512v8.631l2.352-2.121-1.197-.315c0-.588.14-1.12.42-1.596h5.628c0 .504-.028.861-.084 1.071-.042.21-.126.336-.252.378l-1.911.672-1.68 1.554a18.44 18.44 0 0 0 2.121 2.331c.784.728 1.533 1.302 2.247 1.722 0 .56-.224 1.008-.672 1.344-.434.322-1.001.483-1.701.483a3.424 3.424 0 0 1-1.68-.441c-.518-.294-1.064-.791-1.638-1.491-.56-.714-1.211-1.694-1.953-2.94v2.793l.882.231c0 .308-.035.581-.105.819a3.122 3.122 0 0 1-.315.777h-5.796Z"/><circle cx="20" cy="20" r="16" fill="#fff"/><circle cx="15.355" cy="17.327" r="7.72" fill="#333240"/><path fill="#58595B" d="M7.464 22.646a3.431 3.431 0 1 1-6.862 0 3.431 3.431 0 0 1 6.862 0Z"/><path fill="#A59A96" d="M31.483 7.034a3.431 3.431 0 1 1-6.863 0 3.431 3.431 0 0 1 6.863 0Z"/><circle cx="30.796" cy="28.65" r="3.431" fill="#FE6659"/><circle cx="25.649" cy="21.788" r="1.716" fill="#F4B413"/><path fill="#333240" fill-rule="evenodd" d="M26.013 36.31c.006-.15.01-.303.01-.457 0-5.873-4.762-10.634-10.635-10.634S4.754 29.98 4.754 35.853c0 .154.003.306.01.458h21.249Z" clip-rule="evenodd"/></svg>