<svg width="155" height="155" viewBox="0 0 155 155" fill="none" xmlns="http://www.w3.org/2000/svg">
<rect width="155" height="155" fill="white"/>
<g clip-path="url(#clip0_1447_270)">
<path d="M75.6546 3C43.6501 3.53583 16.645 23.1696 6.25537 53.446L75.6546 76.0049V3Z" fill="#F2B039"/>
<path d="M31.9232 137.633L40.5374 125.78L74.8261 78.5695L15.0315 59.1346L5.42009 56.0105C-3.96565 86.6171 6.35328 118.383 31.9232 137.633Z" fill="#D9D9D9"/>
<path d="M78.3496 3V76.0218L147.749 53.4629C137.359 23.1697 110.347 3.53583 78.3496 3Z" fill="#F2B039"/>
<path d="M148.591 56.0105L138.98 59.1346L79.1816 78.5695L113.47 125.78L122.064 137.633C147.648 118.383 157.967 86.6171 148.591 56.0105Z" fill="#F2B039"/>
<path d="M119.899 139.217L110.466 126.245L76.9889 80.1534L43.5257 126.235L34.0928 139.206C60.3061 157.597 93.6953 157.597 119.899 139.217Z" fill="#F2B039"/>
</g>
<defs>
<clipPath id="clip0_1447_270">
<rect width="150" height="150" fill="white" transform="translate(2 3)"/>
</clipPath>
</defs>
</svg>
