<svg width="130" height="130" viewBox="0 0 130 130" fill="none" xmlns="http://www.w3.org/2000/svg">
<rect width="130" height="130" fill="white"/>
<g clip-path="url(#clip0_1447_279)">
<path d="M64.3786 2C37.7082 2.44653 15.204 18.808 6.5459 44.0383L64.3786 62.8374V2Z" fill="#F2B039"/>
<path d="M27.9357 114.194L35.1143 104.317L63.6881 64.9746L13.8594 48.7788L5.84983 46.1754C-1.97162 71.681 6.62749 98.1525 27.9357 114.194Z" fill="#F2B039"/>
<path d="M66.6245 2V62.8515L124.457 44.0524C115.799 18.808 93.2893 2.44653 66.6245 2Z" fill="#F2B039"/>
<path d="M125.159 46.1754L117.149 48.7788L67.3179 64.9746L95.8917 104.317L103.053 114.194C124.373 98.1525 132.972 71.681 125.159 46.1754Z" fill="#F2B039"/>
<path d="M101.248 115.514L93.3877 104.704L65.4904 66.2945L37.6044 104.696L29.7437 115.505C51.5881 130.831 79.4124 130.831 101.248 115.514Z" fill="#F2B039"/>
</g>
<defs>
<clipPath id="clip0_1447_279">
<rect width="125" height="125" fill="white" transform="translate(3 2)"/>
</clipPath>
</defs>
</svg>
