<svg width="126" height="125" viewBox="0 0 126 125" fill="none" xmlns="http://www.w3.org/2000/svg">
<path d="M61.1668 59.5865V0C42.5563 0.371423 25.9771 8.45929 14.2275 22.9017L61.1668 59.5865Z" fill="#F2B039"/>
<path d="M1.48231 75.0571L59.4608 61.6778L12.57 25.0226C1.33702 39.9549 -2.39208 56.7766 1.48231 75.0571Z" fill="#D9D9D9"/>
<path d="M34.9529 118.279L60.1256 64.2777L2.08789 77.6812C6.6376 95.7356 18.2446 110.076 34.9529 118.279Z" fill="#F2B039"/>
<path d="M88.623 118.971L62.5382 65.47L37.3896 119.418C54.4612 127.008 71.6833 126.857 88.623 118.971Z" fill="#F2B039"/>
<path d="M123.192 76.6235L64.9199 64.2346L91.0182 117.795C107.603 109.295 118.959 94.7559 123.192 76.6235Z" fill="#F2B039"/>
<path d="M111.792 24.1559L65.5498 61.6158L123.754 73.9966C127.306 55.6435 123.284 38.8891 111.792 24.1559Z" fill="#F2B039"/>
<path d="M63.8574 0V59.5246L110.1 22.0647C98.0812 7.75413 82.5352 0.336434 63.8574 0Z" fill="#F2B039"/>
</svg>
