<svg width="25" height="25" viewBox="0 0 25 25" fill="none" xmlns="http://www.w3.org/2000/svg">
<path d="M5.06806 9C5.69484 9.0033 6.30538 9.22963 6.81595 9.64796C7.32653 10.0663 7.71214 10.6561 7.9199 11.3366L23.9819 11.3366C24.1155 11.3361 24.2478 11.366 24.3713 11.4246C24.4948 11.4831 24.6071 11.5691 24.7016 11.6776C24.7962 11.7861 24.8712 11.9151 24.9224 12.057C24.9736 12.199 25 12.3512 25 12.5049C24.9993 12.815 24.8917 13.1121 24.7008 13.3312C24.51 13.5502 24.2514 13.6731 23.9819 13.6731L7.9199 13.6731C7.71235 14.3536 7.32616 14.943 6.81474 15.3599C6.30333 15.7768 5.69198 16.0004 5.06525 16C4.43852 16.0004 3.82717 15.7768 3.31576 15.3599C2.80434 14.943 2.41815 14.3536 2.2106 13.6731L1.0153 13.6731C0.746029 13.6731 0.487783 13.5501 0.297378 13.331C0.106972 13.1119 3.77872e-06 12.8147 3.76518e-06 12.5049C-0.000367412 12.3513 0.0256373 12.1992 0.0765294 12.0573C0.127422 11.9153 0.202196 11.7864 0.296549 11.6778C0.390903 11.5692 0.502974 11.4832 0.626324 11.4246C0.749673 11.3661 0.881868 11.3361 1.0153 11.3366L2.2106 11.3366C2.42103 10.6573 2.80825 10.0692 3.31955 9.65228C3.83085 9.23534 4.44139 9.00984 5.06806 9.00647L5.06806 9Z" fill="black"/>
<path d="M19.9291 5.59382e-07C20.5558 0.00288826 21.1663 0.196265 21.6776 0.553806C22.1889 0.911346 22.5762 1.41568 22.7866 1.99815L23.9819 1.99815C24.2514 1.99815 24.51 2.10361 24.7008 2.29142C24.8917 2.47922 24.9993 2.73404 25 3C24.9993 3.26596 24.8917 3.52078 24.7008 3.70858C24.51 3.89639 24.2514 4.00185 23.9819 4.00185L22.7866 4.00185C22.5792 4.58567 22.1931 5.0915 21.6817 5.44945C21.1703 5.80739 20.5589 5.99977 19.9319 6C19.305 5.99977 18.6936 5.80739 18.1822 5.44945C17.6708 5.0915 17.2847 4.58567 17.0773 4.00185L1.0153 4.00185C0.746026 4.00185 0.487779 3.8963 0.297374 3.70842C0.106968 3.52053 -1.1952e-07 3.26571 -1.31134e-07 3C-1.42749e-07 2.73429 0.106968 2.47947 0.297374 2.29159C0.487779 2.1037 0.746026 1.99815 1.0153 1.99815L17.0773 1.99815C17.286 1.41567 17.672 0.911066 18.1825 0.553384C18.693 0.195703 19.303 0.00242387 19.9291 5.59382e-07Z" fill="black"/>
<path d="M19.9291 19.0083C20.5563 19.0092 21.1678 19.2019 21.6794 19.5599C22.1911 19.9178 22.5779 20.4235 22.7866 21.0074L23.9819 21.0074C24.1155 21.007 24.2478 21.0327 24.3713 21.0829C24.4948 21.1331 24.6071 21.2069 24.7016 21.3C24.7962 21.3931 24.8712 21.5037 24.9224 21.6255C24.9736 21.7473 25 21.8779 25 22.0097C24.9993 22.2758 24.8917 22.5307 24.7008 22.7186C24.51 22.9065 24.2514 23.012 23.9819 23.012L22.7866 23.012C22.5776 23.5943 22.1908 24.0982 21.6795 24.4542C21.1682 24.8103 20.5576 25.001 19.9319 25C19.3052 25.0004 18.6939 24.8085 18.1824 24.4508C17.671 24.0932 17.2848 23.5875 17.0773 23.0037L1.0153 23.0037C0.746029 23.0037 0.487783 22.8981 0.297378 22.7101C0.106972 22.5222 3.7985e-06 22.2672 3.78688e-06 22.0014C-0.00036739 21.8697 0.0256373 21.7392 0.0765294 21.6174C0.127422 21.4956 0.202196 21.385 0.296549 21.2918C0.390903 21.1987 0.502974 21.1249 0.626324 21.0746C0.749673 21.0244 0.881868 20.9987 1.0153 20.9991L17.0773 20.9991C17.2849 20.4157 17.6707 19.9101 18.1814 19.5521C18.6921 19.1941 19.3027 19.0012 19.9291 19L19.9291 19.0083Z" fill="black"/>
</svg>
