<svg width="20" height="20" viewBox="0 0 20 20" fill="none" xmlns="http://www.w3.org/2000/svg">
<g clip-path="url(#clip0_1438_1448)">
<path d="M10.0002 18.4639C7.75829 18.4574 5.61 17.5643 4.02427 15.9795C2.43854 14.3947 1.54417 12.2469 1.53637 10.005C1.54287 7.76224 2.43668 5.61322 4.02254 4.02736C5.60841 2.44149 7.75744 1.54767 10.0002 1.54117C12.2429 1.54767 14.392 2.44149 15.9778 4.02736C17.5637 5.61322 18.4575 7.76224 18.464 10.005C18.4562 12.2469 17.5618 14.3947 15.9761 15.9795C14.3904 17.5643 12.2421 18.4574 10.0002 18.4639ZM10.0002 5.95524e-05C8.68435 -0.00448489 7.38059 0.251103 6.16386 0.752105C4.94713 1.25311 3.84142 1.98965 2.91029 2.91941C1.97916 3.84916 1.24098 4.95379 0.738184 6.16978C0.235387 7.38577 -0.0221149 8.68915 -0.0195117 10.005C-0.0221072 11.3189 0.234775 12.6205 0.736403 13.8349C1.23803 15.0493 1.97453 16.1527 2.90363 17.0818C3.83273 18.011 4.93616 18.7474 6.15058 19.2491C7.36501 19.7507 8.66654 20.0076 9.98049 20.005C11.2944 20.0076 12.596 19.7507 13.8104 19.2491C15.0248 18.7474 16.1282 18.011 17.0573 17.0818C17.9864 16.1527 18.7229 15.0493 19.2246 13.8349C19.7262 12.6205 19.9831 11.3189 19.9805 10.005C19.9824 8.69288 19.7257 7.39327 19.2251 6.18042C18.7245 4.96757 17.9897 3.86528 17.0628 2.93657C16.136 2.00785 15.0351 1.2709 13.8233 0.767882C12.6114 0.264865 11.3123 0.0056336 10.0002 0.00498804V5.95524e-05Z" fill="#05447E"/>
<path d="M12.9644 7.07045L9.07957 10.9799L7.45475 9.35505C7.37005 9.26945 7.26922 9.20149 7.15808 9.15512C7.04695 9.10874 6.92772 9.08488 6.80729 9.08488C6.68687 9.08488 6.56764 9.10874 6.4565 9.15512C6.34536 9.20149 6.24453 9.26945 6.15983 9.35505C6.07423 9.43975 6.00628 9.54059 5.9599 9.65172C5.91353 9.76286 5.88965 9.88209 5.88965 10.0025C5.88965 10.1229 5.91353 10.2422 5.9599 10.3533C6.00628 10.4644 6.07423 10.5653 6.15983 10.65L8.42965 12.9247C8.60246 13.0966 8.83582 13.1939 9.07957 13.1955C9.32182 13.1936 9.55357 13.0963 9.72457 12.9247L14.2593 8.37524C14.345 8.29012 14.4131 8.18885 14.4595 8.07731C14.506 7.96576 14.5299 7.84614 14.5299 7.72531C14.5299 7.60448 14.506 7.48486 14.4595 7.37331C14.4131 7.26177 14.345 7.16051 14.2593 7.07538C14.0826 6.9074 13.8482 6.81372 13.6044 6.81372C13.3607 6.81372 13.1262 6.9074 12.9496 7.07538L12.9644 7.07045Z" fill="#05447E"/>
</g>
<defs>
<clipPath id="clip0_1438_1448">
<rect width="20" height="20" fill="white"/>
</clipPath>
</defs>
</svg>
