<svg width="15" height="15" viewBox="0 0 15 15" fill="none" xmlns="http://www.w3.org/2000/svg">
<rect width="15" height="15" fill="white"/>
<g clip-path="url(#clip0_1492_234)">
<path d="M7.49867 13.8479C5.81725 13.843 4.20603 13.1732 3.01674 11.9846C1.82744 10.796 1.15666 9.18516 1.15082 7.50374C1.15569 5.82168 1.82604 4.20992 3.01544 3.02052C4.20484 1.83112 5.81662 1.16075 7.49867 1.15588C9.18073 1.16075 10.7925 1.83112 11.9819 3.02052C13.1713 4.20992 13.8417 5.82168 13.8465 7.50374C13.8407 9.18516 13.1699 10.796 11.9806 11.9846C10.7913 13.1732 9.1801 13.843 7.49867 13.8479V13.8479ZM7.49867 4.46643e-05C6.5118 -0.00336366 5.53398 0.188327 4.62143 0.564079C3.70888 0.939831 2.8796 1.49224 2.18125 2.18956C1.48291 2.88687 0.929271 3.71534 0.552173 4.62733C0.175075 5.53933 -0.018051 6.51686 -0.0160986 7.50374C-0.0180452 8.4892 0.174617 9.46536 0.550838 10.3762C0.927058 11.287 1.47943 12.1146 2.17626 12.8114C2.87309 13.5082 3.70065 14.0606 4.61147 14.4368C5.52229 14.813 6.49844 15.0057 7.4839 15.0037C8.46936 15.0057 9.44551 14.813 10.3563 14.4368C11.2671 14.0606 12.0947 13.5082 12.7915 12.8114C13.4884 12.1146 14.0407 11.287 14.417 10.3762C14.7932 9.46536 14.9858 8.4892 14.9839 7.50374C14.9854 6.51966 14.7928 5.54495 14.4174 4.63531C14.0419 3.72568 13.4908 2.89896 12.7957 2.20243C12.1005 1.50589 11.2749 0.953175 10.366 0.575912C9.45709 0.198649 8.48276 0.0042252 7.49867 0.00374103V4.46643e-05Z" fill="#f2b039"/>
<path d="M9.72302 5.30287L6.80943 8.23493L5.59082 7.01632C5.52729 6.95212 5.45167 6.90115 5.36832 6.86637C5.28496 6.83158 5.19554 6.81369 5.10523 6.81369C5.01491 6.81369 4.92548 6.83158 4.84213 6.86637C4.75878 6.90115 4.68316 6.95212 4.61963 7.01632C4.55543 7.07985 4.50446 7.15547 4.46968 7.23882C4.4349 7.32217 4.41699 7.4116 4.41699 7.50192C4.41699 7.59224 4.4349 7.68166 4.46968 7.76501C4.50446 7.84836 4.55543 7.92399 4.61963 7.98752L6.32199 9.69357C6.4516 9.8225 6.62662 9.89542 6.80943 9.89667C6.99112 9.89525 7.16493 9.82228 7.29318 9.69357L10.6942 6.28146C10.7585 6.21762 10.8096 6.14167 10.8444 6.05801C10.8792 5.97435 10.8972 5.88463 10.8972 5.79401C10.8972 5.70339 10.8792 5.61368 10.8444 5.53002C10.8096 5.44636 10.7585 5.37041 10.6942 5.30657C10.5617 5.18058 10.3859 5.11032 10.2031 5.11032C10.0203 5.11032 9.84443 5.18058 9.71194 5.30657L9.72302 5.30287Z" fill="#f2b039"/>
</g>
<defs>
<clipPath id="clip0_1492_234">
<rect width="15" height="15" fill="white"/>
</clipPath>
</defs>
</svg>
