<svg width="10" height="10" viewBox="0 0 10 10" fill="none" xmlns="http://www.w3.org/2000/svg">
<rect width="10" height="10" fill="white"/>
<g clip-path="url(#clip0_1492_239)">
<path d="M5.00009 9.23193C3.87915 9.22869 2.805 8.78213 2.01214 7.98973C1.21927 7.19733 0.772083 6.12344 0.768187 5.00249C0.771435 3.88112 1.21834 2.80661 2.01127 2.01368C2.8042 1.22075 3.87872 0.773835 5.00009 0.770587C6.12147 0.773835 7.19598 1.22075 7.98891 2.01368C8.78185 2.80661 9.22875 3.88112 9.232 5.00249C9.2281 6.12344 8.78091 7.19733 7.98805 7.98973C7.19518 8.78213 6.12104 9.22869 5.00009 9.23193V9.23193ZM5.00009 2.97762e-05C4.34218 -0.00224244 3.6903 0.125551 3.08193 0.376053C2.47356 0.626554 1.92071 0.994827 1.45514 1.4597C0.98958 1.92458 0.62049 2.47689 0.369092 3.08489C0.117693 3.69289 -0.0110575 4.34457 -0.00975585 5.00249C-0.0110536 5.65947 0.117388 6.31024 0.368202 6.91745C0.619015 7.52466 0.987265 8.07637 1.45182 8.54092C1.91637 9.00547 2.46808 9.37372 3.07529 9.62453C3.68251 9.87534 4.33327 10.0038 4.99024 10.0025C5.64722 10.0038 6.29798 9.87534 6.9052 9.62453C7.51241 9.37372 8.06412 9.00547 8.52867 8.54092C8.99322 8.07637 9.36147 7.52466 9.61229 6.91745C9.8631 6.31024 9.99154 5.65947 9.99024 5.00249C9.99122 4.34644 9.86288 3.69663 9.61256 3.09021C9.36225 2.48378 8.99487 1.93264 8.53142 1.46828C8.06798 1.00393 7.51756 0.63545 6.91163 0.383941C6.3057 0.132432 5.65615 0.0028168 5.00009 0.00249402V2.97762e-05Z" fill="#f2b039"/>
<path d="M6.48169 3.53526L4.5393 5.48996L3.72689 4.67756C3.68454 4.63476 3.63412 4.60078 3.57855 4.57759C3.52298 4.5544 3.46337 4.54247 3.40316 4.54247C3.34295 4.54247 3.28333 4.5544 3.22776 4.57759C3.17219 4.60078 3.12178 4.63476 3.07943 4.67756C3.03663 4.71991 3.00265 4.77032 2.97946 4.82589C2.95627 4.88146 2.94434 4.94108 2.94434 5.00129C2.94434 5.0615 2.95627 5.12112 2.97946 5.17669C3.00265 5.23225 3.03663 5.28267 3.07943 5.32502L4.21434 6.46239C4.30074 6.54834 4.41742 6.59696 4.5393 6.59779C4.66042 6.59684 4.7763 6.5482 4.8618 6.46239L7.12915 4.18765C7.17203 4.14509 7.20606 4.09446 7.22928 4.03868C7.2525 3.98291 7.26445 3.9231 7.26445 3.86269C7.26445 3.80227 7.2525 3.74246 7.22928 3.68669C7.20606 3.63092 7.17203 3.58028 7.12915 3.53772C7.04083 3.45373 6.92361 3.40689 6.80173 3.40689C6.67985 3.40689 6.56263 3.45373 6.4743 3.53772L6.48169 3.53526Z" fill="#f2b039"/>
</g>
<defs>
<clipPath id="clip0_1492_239">
<rect width="10" height="10" fill="white"/>
</clipPath>
</defs>
</svg>
