<svg xmlns="http://www.w3.org/2000/svg" width="161" height="40" fill="none"><path fill="#221E1F" fill-rule="evenodd" d="M0 40h46V0H0v40Zm.662-.662h44.675V.662H.663v38.676Z" clip-rule="evenodd"/><path fill="#221E1F" fill-rule="evenodd" d="M33.156 30.132c-1.786 2.053-4.123 3.09-7.033 3.09-.97.023-1.962-.043-2.91-.175a12.27 12.27 0 0 0 3.395-1.921c3.307-2.65 4.96-6.358 4.96-11.104 0-3.112-.749-5.872-2.27-8.256-1.5-2.384-3.483-3.996-5.93-4.79l-.088-.022c.617-.067 1.234-.11 1.873-.089 3.726 0 6.438 1.06 8.201 3.135 1.764 2.075 2.623 5.386 2.623 9.89 0 4.658-.925 8.08-2.821 10.242Zm-11.508.795V9.36c0-.486.022-.972.088-1.435A8.029 8.029 0 0 1 24.448 10c1.741 2.097 2.623 5.386 2.623 9.89 0 4.68-.948 8.101-2.821 10.264a9.05 9.05 0 0 1-2.558 2.01c-.022-.221-.044-.64-.044-1.237Zm-4.034.265c0 .839-.044 1.347-.154 1.545-.177.243-.485.42-.97.53-1.654-.044-2.778-.199-3.351-.485-.177-.133-.309-.288-.353-.464-.066-.464-.066-.927-.066-1.369V9.36c0-1.103.088-1.765.242-1.942.375-.375 1.456-.552 3.263-.552.22 0 .441 0 .662.022a.823.823 0 0 1 .418.199c.199.22.31.993.31 2.296v21.81ZM32.318 6.976C30.29 6.29 26.873 5.96 22.023 5.96H6.063v-.022c-.463 0-.684.11-.684.331 0 .287.309.442.926.442 1.19 0 1.874.11 2.072.331.198.22.309.993.309 2.296v21.81c0 .839-.044 1.346-.154 1.545-.265.397-.949.618-2.073.618-.86 0-1.3.133-1.3.353 0 .265.264.398.771.398h19.885c4.056 0 7.319-.972 9.744-2.914 3.307-2.65 4.96-6.358 4.96-11.104 0-3.113-.75-5.872-2.27-8.256-1.522-2.384-3.484-3.996-5.931-4.812ZM63.532 15.536a4.25 4.25 0 0 1-1.38 1.073 4.263 4.263 0 0 1-1.749.395h-2.17V6.897h2.198c.592 0 1.156.141 1.663.395.536.254.987.621 1.382 1.073.395.48.705 1.016.93 1.61.225.617.337 1.29.338 1.935-.001.673-.085 1.373-.31 2.017a5.028 5.028 0 0 1-.902 1.609m2.989-3.614c0-.79-.17-1.58-.48-2.315a6.195 6.195 0 0 0-1.268-1.891 5.717 5.717 0 0 0-1.889-1.27 5.81 5.81 0 0 0-2.284-.48h-5.3v.677h1.353V17.23H55.3v.677h5.3c.79 0 1.58-.141 2.312-.451a6.267 6.267 0 0 0 1.89-1.3 6.188 6.188 0 0 0 1.268-1.89c.31-.735.451-1.525.451-2.344M75.881 16.806a3.47 3.47 0 0 1-1.607.396 3.675 3.675 0 0 1-1.635-.396c-.507-.254-.93-.649-1.269-1.1a4.896 4.896 0 0 1-.845-1.666 7.616 7.616 0 0 1 0-4.207 5.017 5.017 0 0 1 .845-1.637c.338-.452.79-.819 1.297-1.073a3.675 3.675 0 0 1 1.635-.395c.564 0 1.1.141 1.58.395.507.254.93.65 1.268 1.101.367.508.648 1.073.846 1.666.197.62.31 1.327.282 2.032 0 .706-.085 1.412-.282 2.118a4.908 4.908 0 0 1-.846 1.666 3.983 3.983 0 0 1-1.269 1.1m2.51-.564a6.006 6.006 0 0 0 1.24-1.976 6.36 6.36 0 0 0 .451-2.4c0-.819-.14-1.61-.451-2.372a8.276 8.276 0 0 0-1.24-1.92 5.98 5.98 0 0 0-1.833-1.326 5.143 5.143 0 0 0-2.228-.509c-.789 0-1.55.17-2.255.48a5.77 5.77 0 0 0-1.86 1.327 6.591 6.591 0 0 0-1.27 1.977c-.31.762-.45 1.58-.45 2.4 0 2.427 1.381 4.658 3.58 5.674 1.41.65 3.045.65 4.483 0a5.446 5.446 0 0 0 1.832-1.355M86.172 11.725h-1.72V6.812h1.692a2.47 2.47 0 0 1 1.748.621c.45.48.648 1.13.62 1.807 0 .34-.056.706-.17 1.017a2.816 2.816 0 0 1-.478.79 1.91 1.91 0 0 1-.734.508c-.338.113-.648.17-.958.17m4.2 6.154h1.523v-.677h-.705a.935.935 0 0 1-.592-.198 2.313 2.313 0 0 1-.564-.706l-2.593-4.008a3.232 3.232 0 0 0 2.001-.989c.48-.592.733-1.355.705-2.117 0-.565-.113-1.101-.366-1.61a2.803 2.803 0 0 0-1.184-1.242c-.649-.282-1.382-.395-2.087-.367h-5.018v.678h1.353V17.23h-1.353v.677h4.285v-.677h-1.353v-4.687h1.41l2.678 4.292c.113.197.254.395.395.564.112.113.225.226.366.311.141.084.282.113.451.141.226.028.451.028.649.028M93.869 6.643h1.353V17.23h-1.353v.677h4.285v-.677h-1.353V6.643h1.353v-.678H93.87v.678ZM104.074 18.161c.479 0 .958-.084 1.409-.254.423-.17.818-.395 1.156-.706.31-.31.592-.649.761-1.072.198-.424.282-.847.282-1.299 0-.339-.056-.677-.141-1.016a2.899 2.899 0 0 0-.479-.875 4.17 4.17 0 0 0-.902-.82c-.451-.338-.93-.62-1.41-.903a15.562 15.562 0 0 1-1.381-.847 4.956 4.956 0 0 1-.846-.677 2.273 2.273 0 0 1-.423-.593 1.605 1.605 0 0 1-.113-.621 1.661 1.661 0 0 1 .564-1.355 1.99 1.99 0 0 1 1.466-.508c.338 0 .649.056.987.17.395.168.789.366 1.128.62v1.299h.845V5.626h-.845v.65c-.311-.17-.621-.31-.959-.367-.395-.085-.789-.141-1.184-.113-.479 0-.959.085-1.41.226a3.47 3.47 0 0 0-1.128.65 3.141 3.141 0 0 0-.733.987 2.762 2.762 0 0 0-.281 1.242c0 .34.056.706.141 1.017.112.31.281.62.507.875.282.31.592.593.959.819.451.31.93.593 1.437.847.424.226.846.451 1.241.734.31.197.564.423.818.677.197.198.338.424.451.678.084.226.141.48.141.734.028.536-.226 1.044-.677 1.383a2.767 2.767 0 0 1-1.748.508c-.197 0-.366 0-.564-.028a3.762 3.762 0 0 1-.535-.141 3.461 3.461 0 0 1-.564-.282c-.198-.113-.452-.283-.733-.452v-1.44h-.846v3.247h.846v-.734c.394.254.845.48 1.297.62.479.142.986.198 1.466.198M122.798 13.955a5.057 5.057 0 0 1-.902 1.609 4.25 4.25 0 0 1-1.382 1.073 4.032 4.032 0 0 1-1.72.395h-2.17V6.897h2.199a3.7 3.7 0 0 1 1.663.395c.536.254.987.621 1.381 1.073.395.48.705 1.016.931 1.61.225.62.338 1.298.338 1.947a8.291 8.291 0 0 1-.338 2.033m1.607-4.32a5.495 5.495 0 0 0-1.241-1.92 5.708 5.708 0 0 0-1.889-1.27 5.808 5.808 0 0 0-2.283-.48h-5.329v.678h1.353V17.23h-1.353v.677h5.3c.79 0 1.579-.14 2.312-.451a5.707 5.707 0 0 0 1.889-1.27 6.185 6.185 0 0 0 1.269-1.892c.31-.734.451-1.525.451-2.344 0-.79-.141-1.58-.479-2.315M134.611 6.643h1.325v6.804c0 .508-.085 1.016-.254 1.468a3.283 3.283 0 0 1-.704 1.157c-.311.311-.677.565-1.072.734-.451.17-.93.283-1.41.255-.479 0-.93-.085-1.353-.255a3.337 3.337 0 0 1-1.043-.734 3.581 3.581 0 0 1-.648-1.157 3.814 3.814 0 0 1-.226-1.468V6.643h1.353v-.678h-4.285v.678h1.353v7.397c0 .564.113 1.13.339 1.637.225.48.535.932.958 1.299.423.367.902.65 1.438.847a5.64 5.64 0 0 0 1.804.31c.874 0 1.748-.197 2.51-.62.705-.34 1.268-.904 1.663-1.582.367-.762.564-1.58.508-2.428v-6.86h1.353v-.678h-3.609v.678ZM144.958 11.414l4.003-4.771h1.156v-.678h-3.721v.678h1.325l-4.427 5.223 5.075 6.041h2.453v-.677h-.958l-4.906-5.816Z" clip-rule="evenodd"/><path fill="#221E1F" fill-rule="evenodd" d="M144.479 17.23h-1.354V6.643h1.354v-.678h-4.286v.678h1.354v10.559h-1.354v.705h4.286v-.677ZM160.154 15.48v1.609h-4.426v-4.856h3.411v1.383h.818V10.06h-.818v1.355h-3.411V6.812h4.285v1.525h.818v-2.88h-.846v.508h-7.189v.678h1.353V17.23h-1.353v.677H161V15.48h-.846ZM55.3 33.95h1.39v-4.059h3.815v-1.273h-3.814v-2.785h4.45V24.48H55.3v9.47ZM70.996 31.085c-.04.279-.199.557-.397.796-.16.199-.318.358-.557.477-.278.16-.556.239-.874.2-.278 0-.596-.08-.834-.2a1.757 1.757 0 0 1-.596-.477 1.605 1.605 0 0 1-.358-.796 10.267 10.267 0 0 1-.08-1.91c0-.637.04-1.273.12-1.91.04-.279.159-.557.357-.796a1.76 1.76 0 0 1 .596-.477c.278-.12.557-.2.835-.2.318 0 .596.08.874.2.477.278.795.756.914 1.273.08.637.12 1.273.08 1.91.04.677 0 1.313-.08 1.91m1.073-5.014a3.317 3.317 0 0 0-1.033-1.193c-.557-.358-1.192-.557-1.828-.518-.636 0-1.272.16-1.788.518a3.113 3.113 0 0 0-1.073 1.193 2.516 2.516 0 0 0-.318.915c-.08.757-.12 1.473-.08 2.229 0 .716 0 1.472.08 2.189.04.159.08.358.12.517.039.119.118.238.198.398.596 1.034 1.669 1.71 2.86 1.71.637 0 1.272-.198 1.829-.557a2.902 2.902 0 0 0 1.033-1.154c.159-.278.278-.596.318-.914.08-.717.08-1.473.08-2.19 0-.755 0-1.471-.08-2.227a2.516 2.516 0 0 0-.318-.916M82.838 30.568a1.977 1.977 0 0 1-.517 1.472 1.708 1.708 0 0 1-1.351.517c-.516 0-.993-.159-1.311-.517-.398-.398-.556-.915-.556-1.472V24.44h-1.391v6.247c-.04.876.318 1.751.953 2.348.596.597 1.43.915 2.265.915 1.828 0 3.299-1.472 3.299-3.263V24.44h-1.391v6.128ZM95.037 31.204h-.04l-4.133-6.724h-1.31v9.47h1.39v-6.764l4.172 6.764h1.312v-9.47h-1.391v6.724ZM107.474 30.966a1.899 1.899 0 0 1-.278.796c-.357.556-1.033.875-1.708.835h-1.669v-6.764h1.669c.635-.04 1.271.238 1.629.795.199.239.318.557.357.876.04.358.04.955.04 1.79.04.518.04 1.115-.04 1.672m.994-4.895a3.017 3.017 0 0 0-2.782-1.591h-3.218v9.47h3.099c.596.04 1.232-.16 1.749-.478a2.995 2.995 0 0 0 1.112-1.114c.08-.159.199-.318.278-.477.08-.16.12-.358.159-.557.08-.716.119-1.433.119-2.149 0-.955-.039-1.631-.079-2.03a3.575 3.575 0 0 0-.437-1.074M115.74 30.568l1.311-4.139h.04l1.311 4.139h-2.662Zm.795-6.088-3.338 9.47h1.47l.675-2.109h3.457l.756 2.109h1.47l-3.338-9.47h-1.152ZM124.641 25.753h2.503v8.197h1.391v-8.197h2.503V24.48h-6.397v1.273Z" clip-rule="evenodd"/><mask id="a" width="161" height="40" x="0" y="0" maskUnits="userSpaceOnUse" style="mask-type:luminance"><path fill="#fff" fill-rule="evenodd" d="M0 40h161V0H0v40Z" clip-rule="evenodd"/></mask><g fill="#221E1F" fill-rule="evenodd" clip-rule="evenodd" mask="url(#a)"><path d="M135.767 33.95h1.391v-9.47h-1.391v9.47ZM147.489 31.125c-.039.278-.198.557-.357.796-.159.199-.318.358-.557.477-.278.16-.556.239-.874.2a1.833 1.833 0 0 1-1.788-1.473 15.496 15.496 0 0 1-.119-1.91c0-.637 0-1.273.119-1.91.04-.279.159-.557.358-.796.159-.199.358-.358.596-.477.278-.12.556-.2.834-.2.318 0 .596.08.874.2.478.278.795.756.914 1.273.08.637.12 1.273.08 1.91.04.636 0 1.273-.08 1.91m1.113-5.054c-.556-1.074-1.669-1.71-2.861-1.71-.636 0-1.272.158-1.788.517-.437.318-.835.716-1.073 1.193a2.517 2.517 0 0 0-.318.916 13.792 13.792 0 0 0-.079 2.228c0 .716 0 1.472.079 2.188.04.16.08.358.119.518.04.12.12.238.199.398.596 1.034 1.669 1.71 2.861 1.71.636 0 1.272-.198 1.828-.556a2.898 2.898 0 0 0 1.033-1.154c.159-.279.278-.597.318-.916.079-.716.079-1.472.079-2.188 0-.756 0-1.472-.079-2.228a2.517 2.517 0 0 0-.318-.916M159.609 31.204l-4.172-6.724h-1.311v9.47h1.39v-6.764h.04l4.133 6.764H161v-9.47h-1.391v6.724Z"/></g></svg>
