<svg width="24" height="24" viewBox="0 0 24 24" fill="none" xmlns="http://www.w3.org/2000/svg">
<g clip-path="url(#clip0)">
<path d="M12 22.1566C9.30975 22.1488 6.7318 21.0771 4.82892 19.1753C2.92605 17.2735 1.8528 14.6962 1.84345 12.0059C1.85124 9.31463 2.92381 6.73581 4.82685 4.83277C6.72989 2.92973 9.30873 1.85715 12 1.84935C14.6913 1.85715 17.2702 2.92973 19.1732 4.83277C21.0762 6.73581 22.1488 9.31463 22.1566 12.0059C22.1472 14.6962 21.074 17.2735 19.1711 19.1753C17.2682 21.0771 14.6903 22.1488 12 22.1566ZM12 1.31454e-05C10.423 -0.00232279 8.86103 0.306685 7.40369 0.909284C5.94634 1.51188 4.62228 2.39624 3.50744 3.51164C2.39259 4.62703 1.50889 5.95151 0.907013 7.40916C0.305132 8.8668 -0.00308885 10.4289 2.33675e-05 12.0059C-0.00309118 13.5827 0.305168 15.1445 0.907121 16.6018C1.50907 18.0591 2.39287 19.3832 3.5078 20.4982C4.62272 21.6131 5.94683 22.4969 7.40414 23.0988C8.86145 23.7008 10.4233 24.009 12 24.0059C13.5768 24.009 15.1386 23.7008 16.5959 23.0988C18.0532 22.4969 19.3773 21.6131 20.4922 20.4982C21.6072 19.3832 22.491 18.0591 23.0929 16.6018C23.6949 15.1445 24.0031 13.5827 24 12.0059C24.0024 10.4294 23.6936 8.86792 23.0913 7.41096C22.4891 5.954 21.6053 4.63023 20.4905 3.51546C19.3757 2.40069 18.0519 1.51685 16.595 0.914621C15.138 0.312391 13.5765 0.00359348 12 0.00592733V1.31454e-05Z" fill="#F2B039"/>
<path d="M12.4142 10.8006C11.8647 10.6174 11.2325 10.4342 11.0789 10.1565C11.0391 10.0906 11.0134 10.0172 11.0035 9.94082C10.9935 9.86446 10.9996 9.78684 11.0213 9.71295C11.0429 9.63905 11.0797 9.57045 11.1293 9.51154C11.1789 9.45263 11.2402 9.40467 11.3094 9.37072C11.6259 9.1624 11.9984 9.05535 12.3773 9.06379C12.7562 9.07224 13.1235 9.19578 13.4305 9.41799C13.6282 9.55994 13.8732 9.62013 14.1142 9.58601C14.3552 9.55189 14.5738 9.4261 14.7244 9.23483C14.8 9.1389 14.8554 9.02863 14.8871 8.91071C14.9189 8.79278 14.9265 8.66965 14.9094 8.54872C14.8923 8.42779 14.8508 8.3116 14.7875 8.20714C14.7243 8.10267 14.6405 8.01208 14.5413 7.94089C14.0302 7.58697 13.447 7.35087 12.8337 7.24961V6.65877C12.8322 6.41378 12.7337 6.17935 12.56 6.00666C12.3862 5.83397 12.1511 5.73706 11.9061 5.73706C11.6621 5.73861 11.4286 5.8362 11.2561 6.00872C11.0835 6.18124 10.9859 6.4148 10.9844 6.65877V7.4446C10.7204 7.548 10.4719 7.68714 10.2458 7.85816C9.75788 8.1763 9.4009 8.65962 9.2403 9.21954C9.07971 9.77947 9.12624 10.3785 9.37139 10.9069C9.87951 11.9704 10.9844 12.2895 11.8647 12.5672C12.9696 12.9394 13.2473 13.0753 13.2946 13.4948C13.3363 13.6846 13.3137 13.8828 13.2302 14.0583C13.1468 14.2338 13.0073 14.3764 12.8337 14.4638C12.4328 14.6406 11.9935 14.7122 11.5572 14.6719C11.1209 14.6316 10.7021 14.4807 10.3404 14.2334C10.2448 14.157 10.1345 14.1009 10.0165 14.0686C9.89845 14.0364 9.77505 14.0286 9.65387 14.0457C9.5327 14.0629 9.41632 14.1046 9.31186 14.1684C9.2074 14.2321 9.11707 14.3166 9.04643 14.4165C8.97085 14.5125 8.91549 14.6227 8.8837 14.7407C8.85191 14.8586 8.84435 14.9817 8.86146 15.1026C8.87858 15.2236 8.92002 15.3398 8.98329 15.4442C9.04656 15.5487 9.13035 15.6393 9.22959 15.7105C9.76367 16.0753 10.367 16.3267 11.0021 16.449V17.3707C11.0037 17.6147 11.1013 17.8482 11.2738 18.0208C11.4463 18.1933 11.6798 18.2909 11.9238 18.2925C12.1688 18.2925 12.4039 18.1955 12.5777 18.0229C12.7515 17.8502 12.8499 17.6157 12.8515 17.3707V16.449C13.1878 16.363 13.513 16.2381 13.8204 16.0768C14.2951 15.8112 14.68 15.4103 14.9262 14.9253C15.1724 14.4403 15.2688 13.893 15.203 13.353C15.0671 11.5805 13.4955 11.1373 12.4319 10.8124L12.4142 10.8006Z" fill="#F2B039"/>
</g>
<defs>
<clipPath id="clip0">
<rect width="24" height="24" fill="white"/>
</clipPath>
</defs>
</svg>
