<svg width="24" height="24" viewBox="0 0 24 24" fill="none" xmlns="http://www.w3.org/2000/svg">
<g clip-path="url(#clip0)">
<path d="M12.0002 22.1565C9.30995 22.1487 6.732 21.077 4.82912 19.1752C2.92625 17.2735 1.853 14.6961 1.84365 12.0059C1.85144 9.31457 2.92401 6.73575 4.82705 4.83271C6.73009 2.92967 9.30893 1.85708 12.0002 1.84929C14.6915 1.85708 17.2703 2.92967 19.1734 4.83271C21.0764 6.73575 22.149 9.31457 22.1568 12.0059C22.1474 14.6961 21.0742 17.2735 19.1713 19.1752C17.2684 21.077 14.6905 22.1487 12.0002 22.1565ZM12.0002 -5.06074e-05C10.4212 -0.00550393 8.85671 0.301201 7.39663 0.902404C5.93655 1.50361 4.6097 2.38746 3.49235 3.50317C2.37499 4.61888 1.48918 5.94442 0.88582 7.40361C0.282464 8.8628 -0.0265379 10.4269 -0.023414 12.0059C-0.0265286 13.5826 0.281731 15.1445 0.883684 16.6018C1.48564 18.0591 2.36943 19.3832 3.48436 20.4981C4.59928 21.613 5.92339 22.4968 7.3807 23.0988C8.83801 23.7007 10.3998 24.009 11.9766 24.0059C13.5533 24.009 15.1152 23.7007 16.5725 23.0988C18.0298 22.4968 19.3539 21.613 20.4688 20.4981C21.5837 19.3832 22.4675 18.0591 23.0695 16.6018C23.6714 15.1445 23.9797 13.5826 23.9766 12.0059C23.9789 10.4313 23.6709 8.8718 23.0701 7.41638C22.4694 5.96096 21.5877 4.63822 20.4754 3.52376C19.3632 2.4093 18.0422 1.52496 16.5879 0.921337C15.1337 0.317716 13.5748 0.00663825 12.0002 0.00586358V-5.06074e-05Z" fill="#05447E"/>
<path d="M15.557 8.48447L10.8953 13.1758L8.94551 11.226C8.84386 11.1233 8.72286 11.0417 8.5895 10.9861C8.45614 10.9304 8.31307 10.9018 8.16856 10.9018C8.02405 10.9018 7.88097 10.9304 7.7476 10.9861C7.61424 11.0417 7.49324 11.1233 7.3916 11.226C7.28888 11.3276 7.20734 11.4486 7.15169 11.582C7.09604 11.7154 7.06738 11.8584 7.06738 12.0029C7.06738 12.1475 7.09604 12.2905 7.15169 12.4239C7.20734 12.5573 7.28888 12.6783 7.3916 12.7799L10.1154 15.5096C10.3228 15.7159 10.6028 15.8326 10.8953 15.8345C11.186 15.8323 11.4641 15.7155 11.6693 15.5096L17.1109 10.0502C17.2138 9.94807 17.2955 9.82655 17.3512 9.6927C17.407 9.55884 17.4357 9.41529 17.4357 9.2703C17.4357 9.12531 17.407 8.98176 17.3512 8.8479C17.2955 8.71405 17.2138 8.59254 17.1109 8.49038C16.899 8.28881 16.6176 8.17639 16.3251 8.17639C16.0326 8.17639 15.7513 8.28881 15.5393 8.49038L15.557 8.48447Z" fill="#05447E"/>
</g>
<defs>
<clipPath id="clip0">
<rect width="24" height="24" fill="white"/>
</clipPath>
</defs>
</svg>
