<?xml version="1.0" encoding="UTF-8"?>
<svg width="1200pt" height="1200pt" version="1.1" viewBox="0 0 1200 1200" xmlns="http://www.w3.org/2000/svg">
 <path d="m1071.4 180.94c-52.875-52.875-123.19-81.938-197.81-81.938s-144.94 29.062-197.81 81.938l-26.25 26.25-45.938-45.938c-61.688-61.688-143.44-95.438-230.63-95.438s-169.13 33.938-230.63 95.438c-127.31 127.13-127.31 333.94 0 461.06l45.938 45.938-43.5 43.5c-33 33-35.625 84.938-5.625 118.12 15.75 17.438 37.125 27.188 60.562 27.75 3.5625 0 7.125 0 10.688-0.375-0.375 2.8125-0.375 5.8125-0.375 8.8125 0 22.5 8.8125 43.5 24.75 59.438 16.312 16.125 37.688 24.188 59.25 24.188 3 0 6.1875-0.5625 9.1875-0.9375-2.8125 24.562 4.875 49.875 23.812 68.625 16.312 16.312 37.688 24.562 59.25 24.562 3 0 6-0.5625 9.1875-0.75-0.375 4.3125-0.9375 8.625-0.75 13.125 1.125 22.5 10.875 43.312 27.75 58.5 15.562 13.875 35.062 20.812 54.938 20.812 22.688 0 45.562-9 63.188-26.625l43.5-43.312 45.938 45.938c15.938 15.938 36.938 24.562 59.438 24.562s43.5-8.8125 59.438-24.562c18.75-18.75 26.25-44.062 23.625-68.438 3 0.375 6 0.9375 9.1875 0.9375 22.5 0 43.5-8.8125 59.438-24.562 18.75-18.75 26.438-44.062 23.625-68.438 3 0.375 6 0.9375 9.1875 0.9375 22.5 0 43.5-8.8125 59.438-24.562 18.75-18.75 26.25-44.062 23.625-68.438 3 0.375 6 0.9375 9.1875 0.9375 22.5 0 43.5-8.8125 59.438-24.562 32.812-32.812 32.812-86.062 0-118.69l-45.938-45.938 92.062-92.062c108.94-108.94 108.94-286.31 0-395.26zm-902.63 6.75c54.562-54.562 126.94-84.562 204.19-84.562 77.258 0 149.63 30 204.19 84.562l191.06 191.06c21.75 21.75 21.75 57.188 0 78.938s-57.188 21.75-78.938 0l-131.81-131.81c-7.125-7.125-19.5-7.125-26.438 0l-316.13 316.13-46.125-46.125c-112.5-112.5-112.5-295.69 0-408.19zm553.13 895.69c-17.625 17.438-48.188 17.625-65.625 0l-58.875-58.875s0-0.1875-0.1875-0.375c0 0-0.1875 0-0.375-0.1875l-32.812-32.812c-18.188-18.188-18.188-47.625 0-65.625 8.8125-8.8125 20.438-13.688 32.812-13.688s24 4.875 32.812 13.688l92.25 92.25c18.188 18.188 18.188 47.625 0 65.625zm92.25-92.25c-17.625 17.438-48.188 17.625-65.625 0l-92.25-92.25c-18.188-18.188-18.188-47.625 0-65.625 8.8125-8.8125 20.438-13.688 32.812-13.688s24 4.875 32.812 13.688l92.25 92.25c18.188 18.188 18.188 47.625 0 65.625zm92.25-92.25c-17.625 17.625-48.188 17.625-65.625 0l-92.25-92.25c-18.188-18.188-18.188-47.625 0-65.625 8.8125-8.8125 20.438-13.688 32.812-13.688s24 4.875 32.812 13.688l92.25 92.25c18.188 18.188 18.188 47.625 0 65.625zm92.25-92.25c-17.625 17.625-48.188 17.625-65.625 0l-92.25-92.25c-18.188-18.188-18.188-47.625 0-65.625 8.8125-8.8125 20.438-13.688 32.812-13.688s24 4.875 32.812 13.688l92.25 92.25c18.188 18.188 18.188 47.625 0 65.625zm-45.938-164.63-19.688-19.688c-15.938-15.938-36.938-24.562-59.438-24.562s-43.5 8.8125-59.438 24.562c-18.75 18.75-26.25 44.062-23.625 68.438-3-0.375-6-0.9375-9.1875-0.9375-22.5 0-43.5 8.8125-59.438 24.562-18.75 18.75-26.25 44.062-23.625 68.438-3-0.375-6-0.9375-9.1875-0.9375-22.5 0-43.5 8.8125-59.438 24.562-18.75 18.75-26.25 44.062-23.625 68.438-3-0.375-6-0.9375-9.1875-0.9375-22.5 0-43.5 8.8125-59.438 24.562-32.812 32.812-32.812 86.062 0 118.69l19.688 19.688-43.5 43.312c-18.562 18.562-48.375 20.625-66.375 4.5-9.375-8.4375-14.812-20.062-15.375-32.438s3.75-24.375 12.188-33.562l34.312-34.312c1.875-1.875 3.1875-3.9375 4.125-6.1875 2.8125-6.75 1.5-14.812-4.125-20.438-7.3125-7.3125-19.125-7.3125-26.438 0l-34.5 34.5c-18.375 16.5-46.5 15.938-64.125-1.6875-8.625-8.625-13.5-20.25-13.5-32.625s4.6875-24 13.312-32.625l23.25-23.438 9.9375-9.9375c7.3125-7.3125 7.3125-19.125 0-26.438-5.4375-5.4375-13.5-6.9375-20.438-4.125-2.25 0.9375-4.5 2.25-6.1875 4.125l-9.75 9.9375-23.812 23.812c-18.188 17.25-47.062 16.875-64.875-0.75-8.8125-8.8125-13.688-20.438-13.688-32.812s4.875-24 13.688-32.812v-0.1875l32.812-32.812c7.3125-7.3125 7.3125-19.125 0-26.438s-19.125-7.3125-26.438 0l-33.375 33.375c-9 8.8125-21 13.688-33.562 13.125-12.938-0.375-24.938-5.8125-33.562-15.375-16.125-18-14.25-47.812 4.3125-66.375l372.74-372.74 118.5 118.5c36.375 36.375 95.625 36.375 132 0s36.375-95.438 0-131.81l-118.5-118.5 26.25-26.25c45.75-45.75 106.69-71.062 171.19-71.062 64.504 0 125.44 25.125 171.37 71.062 94.312 94.312 94.312 247.87 0 342.37z"/>
</svg>
