<?xml version="1.0" encoding="UTF-8"?><svg id="a" xmlns="http://www.w3.org/2000/svg" viewBox="0 0 800 600.7"><path d="M479.27,226.69c-1.34,.46-2.4,.96-3.51,1.18-14.29,2.86-23.43,12.26-30.63,24.1-7.4,12.16-10.64,25.67-12.3,39.6-.85,7.19-1.03,14.46-1.65,21.68-.59,6.91,.91,13.39,5.44,18.49,4.76,5.35,4.77,10.95,3.05,17.17-1.83,6.65-3.73,13.29-5.3,20-1.03,4.4-1.08,9.06-2.37,13.37-2.79,9.33-7.84,17.4-18.12,19.24-16.22,2.91-27.51-.09-33.43-17.32-1.15-3.33-1.43-6.96-2.19-10.44-1.35-6.2-2.72-12.4-4.16-18.58-.9-3.88-2.31-7.68-2.82-11.6-.31-2.4-.21-5.68,1.18-7.35,7.38-8.9,9.05-18.8,7.82-30.05-1.64-14.96-3.06-29.87-8.59-44.03-3.22-8.24-7.88-15.59-13.73-22.21-4.62-5.24-10.19-8.95-16.99-10.73-2.49-.66-4.95-1.47-7.88-2.35,1.53-3.33,2.85-6.59,4.48-9.69,7.51-14.23,14.79-28.56,19.61-43.98,6.34-20.25,10.58-40.95,12.35-62.09,.87-10.4,.72-20.74-5.23-30.12-1.57-2.47-2.48-5.57-2.93-8.5-1.42-9.17,5.19-16.96,15.17-18.14,4.81-.57,9.51-.41,13.56,2.87,3.54,2.87,5.01,6.43,2.81,10.3-8.94,15.79-7.34,33.06-7.19,50.04,.1,12.45,1.75,24.84,6.2,36.59,1.54,4.07,3.65,8.15,6.41,11.49,4.94,5.97,11.85,6,17.63,.7,5.17-4.73,8.24-10.8,10.38-17.33,7.02-21.43,8.17-42.97,.61-64.54-.92-2.63-2.27-5.13-3.5-7.65-3.57-7.3-.09-13.35,8.05-14.11,5.43-.51,9.5,1.49,13.03,5.66,3.38,4,7.17,7.73,11.15,11.14,5.09,4.36,6.34,10,1.51,14.56-7.07,6.67-8.27,14.95-8.93,23.85-2.32,31.64,5.22,60.87,20.83,88.27,3.2,5.62,5.92,11.53,8.83,17.31,.47,.94,.81,1.94,1.33,3.19Zm-55.23,101.76c-2.36,3.92-4.44,7.16-6.28,10.53-.69,1.27-1.08,2.81-1.21,4.26-.24,2.73,1.39,4.4,3.91,3.56,3.05-1.02,6-2.63,8.64-4.5,1.91-1.35,2.07-3.75,.73-5.8-1.64-2.5-3.48-4.86-5.8-8.06Zm-35.81,.07c-1.95,2.35-3.48,4.02-4.8,5.84-2.91,4.02-2.51,6.63,1.42,9.63,.93,.71,1.97,1.52,3.06,1.74,2.1,.42,4.84,1.35,6.28,.44,2.21-1.41,1.38-4.34,.27-6.5-1.86-3.62-3.96-7.11-6.23-11.15Z"/><path d="M254.36,130.68c9.42,3.94,18.07,7.5,26.67,11.16,6.82,2.9,13.9,5.38,20.33,9,13.9,7.83,22.14,20.59,28.29,34.86,2.13,4.94,3.99,10.01,5.79,15.09,.36,1.03,.29,2.64-.29,3.51-5.79,8.62-7.55,18.24-7.33,28.38,.06,2.79,.37,5.57,.54,8.01-10.39-3.31-21.2-6.37-31.72-10.22-10.1-3.69-17.06-11.17-21.75-20.74-8.6-17.55-14.23-36.08-17.54-55.29-1.31-7.62-1.96-15.36-2.99-23.76Z"/><path d="M484.17,240.5c0-3.76,.04-7.94,0-12.12-.11-8.6-2.04-16.65-6.99-23.86-.62-.91-.91-2.54-.56-3.56,4.72-13.36,9.85-26.53,19.35-37.45,6.52-7.5,14.59-12.78,23.65-16.64,11.11-4.74,22.26-9.37,33.4-14.04,1.17-.49,2.37-.93,4.34-1.71-.64,6.68-.99,12.79-1.85,18.83-2.73,19.11-8.34,37.39-15.81,55.2-6.33,15.09-17.06,24.45-32.88,28.44-7.8,1.97-15.41,4.69-22.64,6.93Z"/><path d="M423.84,559.9c.03-22.58,13.92-48.03,34.92-60.01,2.77,18.22,5.52,36.25,8.25,54.2-9.53,3.37-37.85,7.16-43.18,5.81Z"/><path d="M344.42,554.12c3.03-20.25,6-40.06,8.96-59.88,14.12,21.29,25.49,43.84,36.81,67.15-15.68-1.26-30.55-3.86-45.77-7.27Z"/><path d="M442.76,369.79c1.26-8.51,2.68-17.01,3.72-25.55,1.05-8.68,1.64-17.41,2.59-26.11,.45-4.17,.97-8.38,1.99-12.43,1.45-5.76,5.49-7.94,11.16-6.32,4.92,1.41,8.35-.46,10.87-4.73l.92,.12c.68,4.69,1.6,9.37,1.99,14.08,.81,9.76-.07,19.26-6.23,27.45-1.55,2.06-3.33,4.02-5.33,5.64-8.76,7.07-15.07,15.98-20.02,25.96-.36,.73-.86,1.4-1.3,2.1l-.36-.21Z"/><path d="M368.94,370.63c-2.15-3.75-3.91-6.79-5.65-9.84-3.71-6.53-8.01-12.65-13.95-17.31-11.76-9.23-14.58-21.64-13.1-35.63,.45-4.32,1.28-8.6,2.35-13.04,3.18,5.34,7.56,5.52,12.61,4.16,4.36-1.18,8.77,2.02,9.95,7.45,.98,4.52,1.42,9.16,1.99,13.77,1.96,15.84,3.87,31.69,5.78,47.53,.08,.68,.01,1.38,.01,2.92Z"/><path d="M368.91,279.79c-2.43-1.71-4.87-3.42-7.3-5.12-8.3,10.67-15.22,14.09-23.71,10.93-9.56-3.56-11.35-11.57-10.41-20.97-7.31,.54-14.38,.7-21.18-3.25,8.28-2.39,15.52-6.04,21.93-11.39,3.53-2.95,7.94-3.2,11.93-1.32,3.83,1.81,7.64,4.06,10.78,6.88,7.54,6.77,13.04,15.22,17.95,24.24Z"/><path d="M505.48,261.39c-6.54,3.85-13.39,3.81-20.62,3.26,.59,10.08-1.86,18.83-12.85,21.39-9.9,2.3-16.69-3.06-21.45-11.52-2.65,1.82-5.12,3.52-8.06,5.54,.24-.83,.24-1.25,.45-1.51,6.65-8.22,13.08-16.64,20.12-24.51,2.38-2.66,6.13-4.49,9.61-5.66,4.45-1.5,8.97-.71,12.72,2.64,5.71,5.09,12.5,8.17,20.08,10.38Z"/><path d="M411.55,536.92c-2.38-24.51-2.08-48,3.8-72.14,4.23,5.26,8.11,9.81,11.68,14.6,2.44,3.28,4.8,6.7,6.59,10.36,3,6.13,2.91,12.55-.99,18.2-6.62,9.59-13.68,18.86-21.08,28.98Z"/><path d="M395.15,471.96c3.93,22.18,5.91,44.51,5.17,67.91-1.31-1.2-2.26-1.82-2.89-2.68-6.53-8.85-13.12-17.67-19.43-26.68-1.62-2.32-2.66-5.22-3.32-8.01-1.16-4.86-1.1-9.91,2.43-13.83,5.39-5.99,11.2-11.61,16.83-17.38l1.21,.67Z"/><path d="M442.56,383.22c1.28,6.53,2.59,13.05,3.84,19.58,.71,3.7,1.12,7.48,2.07,11.12,.7,2.71,0,4.57-1.66,6.71-8.75,11.35-20.03,19.46-33.1,26.45,3.66-24.23,12.47-45.53,28.85-63.86Z"/><path d="M369.64,382.56c14.27,19.01,24.12,39.43,26,63.13l-.83,.78c-5.96-4.52-12.22-8.71-17.8-13.66-4.74-4.21-8.72-9.28-12.93-14.05-.62-.7-1.12-1.95-.97-2.83,1.84-10.72,3.82-21.43,5.77-32.13,.05-.27,.3-.51,.75-1.24Z"/><path d="M451.12,435.16c3.64,17.29,5.45,34.8,6.67,53.49-5.96-4.14-11.2-7.62-16.26-11.35-3.03-2.24-5.94-4.71-8.61-7.37-5.31-5.28-6.03-11.51-1.15-17.09,5.65-6.45,12.09-12.22,18.19-18.28l1.16,.59Z"/><path d="M360.32,434.43c6,5.35,11.56,9.95,16.66,15.01,2.77,2.76,3.77,6.72,2.67,10.57-1.65,5.78-3.41,11.59-5.8,17.09-2.61,6.02-8.35,8.81-14.77,8.3-3.01-.24-4.63-1.48-4.31-4.69,.99-9.77,1.86-19.55,2.97-29.3,.61-5.34,1.6-10.64,2.58-16.99Z"/></svg>