<svg width="43" height="44" viewBox="0 0 43 44" fill="none" xmlns="http://www.w3.org/2000/svg" preserveAspectRatio="xMidYMid meet" version="1.1">
<path d="M21.5 2.8028C16.5399 2.81442 11.7862 4.79991 8.27889 8.32495C4.77153 11.85 2.79597 16.6276 2.78441 21.6128C2.78441 26.312 4.34735 30.1224 7.13171 33.704L6.01532 40.4184L13.5935 38.742C16.0828 39.8523 18.7767 40.4235 21.5 40.4184C26.4605 40.4079 31.2149 38.4228 34.7225 34.8975C38.2301 31.3722 40.2053 26.5939 40.2157 21.6084C40.2203 19.1369 39.7394 16.6889 38.8004 14.4046C37.8615 12.1204 36.4831 10.045 34.7443 8.29737C33.0055 6.54978 30.9404 5.16441 28.6677 4.22077C26.3949 3.27712 23.9591 2.79376 21.5 2.79839V2.8028ZM21.5 0C27.1955 0.0220183 32.6514 2.30568 36.6787 6.35328C40.706 10.4009 42.9782 15.8843 43.0001 21.6084C43.0081 24.4489 42.4577 27.2631 41.3802 29.8892C40.3027 32.5152 38.7196 34.9014 36.7217 36.9106C34.7238 38.9198 32.3505 40.5124 29.7383 41.5969C27.1261 42.6814 24.3264 43.2364 21.5 43.23C18.7169 43.2186 15.9602 42.6875 13.3703 41.6636L2.56551 44.0132L4.12408 34.496C1.44136 30.7447 -0.00121804 26.2413 5.41805e-05 21.6216C-0.00629526 18.7822 0.545486 15.9694 1.62371 13.3449C2.70194 10.7204 4.28539 8.33572 6.28312 6.32793C8.28084 4.32013 10.6535 2.7287 13.2648 1.64503C15.8762 0.561368 18.6748 0.00683144 21.5 0.0132129V0Z" fill="#333240"/>
<path d="M14.8193 17.2435C14.8193 13.4375 17.7175 10.3003 21.5 10.3003C25.2826 10.3003 28.1851 13.4375 28.1851 17.2435C28.2075 18.5557 27.8509 19.8463 27.1587 20.9591C26.4664 22.0719 25.468 22.9591 24.2844 23.5135C23.8668 23.7127 23.5171 24.0317 23.2795 24.4302C23.0419 24.8287 22.927 25.289 22.9491 25.7531V26.3119H20.0509V25.7531C20.0586 24.751 20.3425 23.7706 20.8711 22.9208C21.3997 22.0711 22.1524 21.3853 23.0455 20.9395C24.4945 20.1563 25.3876 18.9243 25.3876 17.2435C25.4039 16.7137 25.3158 16.186 25.1283 15.6906C24.9407 15.1952 24.6575 14.742 24.2949 14.3572C23.9323 13.9723 23.4975 13.6633 23.0156 13.4481C22.5337 13.2329 22.0141 13.1156 21.4869 13.1031C20.9597 13.1156 20.4401 13.2329 19.9582 13.4481C19.4763 13.6633 19.0415 13.9723 18.6789 14.3572C18.3163 14.742 18.0331 15.1952 17.8455 15.6906C17.658 16.186 17.5699 16.7137 17.5862 17.2435H14.8193Z" fill="#333240"/>
<path fill-rule="evenodd" clip-rule="evenodd" d="M23.3953 29.6693C23.3953 32.2081 19.6084 32.2081 19.6084 29.6693C19.6084 27.1305 23.3953 27.1349 23.3953 29.6693Z" fill="#333240"/>
<defs>
<rect width="43" height="44" fill="white"/>
</defs>
</svg>
