<svg width="55" height="39" viewBox="0 0 55 39" fill="none" xmlns="http://www.w3.org/2000/svg">
<path d="M36.7098 32.2789C35.9278 31.0274 34.889 29.958 33.6628 29.1422C32.4366 28.3263 31.0512 27.7828 29.5993 27.548C30.81 27.1893 31.873 26.447 32.6297 25.4318C33.3864 24.4166 33.7963 23.1828 33.7985 21.9144V21.8275C35.7636 20.6547 38.0065 20.0349 40.292 20.0329C43.5824 20.0394 46.7454 21.3123 49.1307 23.59C51.516 25.8676 52.9424 28.977 53.1168 32.2789H36.7098ZM1.86137 32.2789C2.03354 28.7251 3.55852 25.3737 6.12089 22.9182C8.68325 20.4627 12.0869 19.0909 15.6276 19.0868C17.9399 19.0856 20.2148 19.6731 22.2401 20.7943C22.1641 21.1518 22.1243 21.5162 22.1211 21.8818C22.1256 23.1512 22.5378 24.3852 23.2963 25.4002C24.0549 26.4152 25.1192 27.1571 26.3311 27.5154C24.8777 27.7501 23.4908 28.2935 22.2628 29.1092C21.0349 29.925 19.994 30.9944 19.2098 32.2463L1.86137 32.2789ZM8.35488 9.22257C8.35488 7.27172 9.12521 5.40062 10.4969 4.02014C11.8686 2.63966 13.7295 1.86264 15.6708 1.85975C17.6121 1.86264 19.473 2.63966 20.8448 4.02014C22.2165 5.40062 22.9868 7.27172 22.9868 9.22257C22.9839 11.1715 22.2123 13.0398 20.8409 14.418C19.4695 15.7961 17.6102 16.5716 15.6708 16.5745C14.7068 16.5788 13.7514 16.3919 12.8595 16.0245C11.9675 15.6571 11.1564 15.1163 10.4727 14.4334C9.78908 13.7504 9.24627 12.9386 8.87539 12.0444C8.50452 11.1503 8.31296 10.1913 8.31155 9.22257H8.35488ZM33.5496 10.843C33.5496 9.03163 34.2656 7.29444 35.5402 6.01359C36.8148 4.73273 38.5436 4.01317 40.3461 4.01317C42.1478 4.01605 43.8749 4.73654 45.1489 6.01677C46.4229 7.297 47.1399 9.03251 47.1427 10.843C47.1427 12.6544 46.4267 14.3917 45.1521 15.6725C43.8775 16.9534 42.1487 17.673 40.3461 17.673C39.4496 17.6801 38.5605 17.5087 37.7302 17.1685C36.9 16.8284 36.145 16.3263 35.509 15.6912C34.8731 15.0561 34.3687 14.3007 34.0249 13.4685C33.6812 12.6364 33.5049 11.744 33.5064 10.843H33.5496ZM42.0129 18.8149C43.8426 18.4396 45.4875 17.4417 46.6704 15.9895C47.8533 14.5373 48.5018 12.7197 48.5064 10.843C48.5035 8.6835 47.6485 6.61328 46.1289 5.08626C44.6093 3.55925 42.5493 2.70008 40.4003 2.6972C38.2513 2.70008 36.1912 3.55925 34.6716 5.08626C33.152 6.61328 32.2971 8.6835 32.2943 10.843C32.2937 12.7111 32.9321 14.5226 34.1025 15.974C35.2728 17.4253 36.9041 18.4283 38.7228 18.8149C36.964 19.0271 35.2606 19.5694 33.7011 20.4136C33.3647 19.1682 32.6309 18.0682 31.6123 17.2824C30.5937 16.4965 29.3468 16.0682 28.0626 16.0633C26.9369 16.0648 25.8355 16.393 24.8909 17.0085C23.9463 17.624 23.1986 18.5004 22.7379 19.5326C20.8943 18.5517 18.8666 17.9701 16.7855 17.8252C18.8709 17.5612 20.7896 16.5439 22.1836 14.963C23.5775 13.3821 24.3515 11.3456 24.3613 9.23346C24.3613 6.92594 23.4491 4.71293 21.8254 3.08127C20.2017 1.44961 17.9995 0.532959 15.7033 0.532959C13.407 0.532959 11.2048 1.44961 9.58113 3.08127C7.95744 4.71293 7.04526 6.92594 7.04526 9.23346C7.05506 11.3456 7.82917 13.3821 9.22311 14.963C10.6171 16.5439 12.5356 17.5612 14.621 17.8252C10.8117 18.0993 7.24586 19.8089 4.63715 22.6119C2.02844 25.4149 0.569285 29.1045 0.551758 32.9423V33.6057H18.5171C17.9331 34.9313 17.6309 36.3648 17.6297 37.8146V38.478H38.3223V37.8146C38.3211 36.3648 38.0189 34.9313 37.435 33.6057H54.4587V32.9423C54.4596 29.4598 53.1902 26.0978 50.8907 23.4925C48.5912 20.8871 45.4211 19.219 41.9804 18.804L42.0129 18.8149Z" fill="#522A10" stroke="#522A10" stroke-miterlimit="10"/>
</svg>
