<svg width="44" height="44" viewBox="0 0 44 44" fill="none" xmlns="http://www.w3.org/2000/svg">
<g clip-path="url(#clip0)">
<path d="M14.3944 16.835C14.3973 13.4344 15.7493 10.174 18.1539 7.7694C20.5585 5.36484 23.8189 4.01266 27.2194 4.00977C30.6201 4.01552 33.8801 5.36824 36.2858 7.77186C38.6915 10.1755 40.0469 13.4343 40.0555 16.835C40.0498 20.2365 38.6953 23.4969 36.289 25.9012C33.8827 28.3054 30.621 29.6573 27.2194 29.6601C23.8189 29.6572 20.5585 28.3051 18.1539 25.9005C15.7493 23.4959 14.3973 20.2355 14.3944 16.835ZM14.6668 27.982C14.0603 28.4145 13.3601 28.6972 12.6233 28.807C11.8866 28.9169 11.1343 28.8508 10.4281 28.614L1.04621 37.9959C0.716738 38.3248 0.455324 38.7155 0.276987 39.1455C0.0986499 39.5756 0.00683594 40.0365 0.00683594 40.5021C0.00683594 40.9676 0.0986499 41.4286 0.276987 41.8587C0.455324 42.2887 0.716738 42.6794 1.04621 43.0083C1.37439 43.3391 1.76477 43.6016 2.19491 43.7808C2.62505 43.96 3.08636 44.0521 3.55232 44.0521C4.01827 44.0521 4.47958 43.96 4.90972 43.7808C5.33986 43.6016 5.73037 43.3391 6.05856 43.0083L15.4513 33.6156C15.2104 32.9124 15.1411 32.1617 15.2491 31.4263C15.3572 30.6909 15.6394 29.9919 16.0724 29.3877C19.2777 32.2229 23.443 33.7301 27.7204 33.6026C31.9978 33.4751 36.0659 31.7224 39.0966 28.7012C42.2426 25.5491 44.0095 21.2775 44.0095 16.824C44.0095 12.3706 42.2426 8.09907 39.0966 4.94692C35.9417 1.80623 31.6712 0.0429688 27.2194 0.0429688C22.7677 0.0429688 18.4973 1.80623 15.3424 4.94692C12.3251 7.98035 10.576 12.0487 10.4505 16.3254C10.3251 20.602 11.8326 24.766 14.6668 27.9711V27.982Z" fill="#522A10"/>
<path d="M27.2195 6.09123C27.6241 6.09123 28.0121 6.25193 28.2982 6.53802C28.5843 6.82411 28.745 7.21211 28.745 7.6167C28.745 8.02129 28.5843 8.40935 28.2982 8.69544C28.0121 8.98153 27.6241 9.14223 27.2195 9.14223C25.1965 9.14223 23.2565 9.94582 21.826 11.3763C20.3956 12.8067 19.5919 14.7468 19.5919 16.7698C19.5919 16.9701 19.5525 17.1685 19.4758 17.3536C19.3992 17.5386 19.2868 17.7068 19.1452 17.8484C19.0035 17.9901 18.8353 18.1025 18.6502 18.1792C18.4651 18.2558 18.2669 18.2953 18.0665 18.2953C17.662 18.2953 17.2739 18.1345 16.9878 17.8484C16.7017 17.5624 16.541 17.1744 16.541 16.7698C16.5439 13.9356 17.671 11.2184 19.6751 9.21439C21.6791 7.21036 24.3963 6.08321 27.2304 6.08032L27.2195 6.09123Z" fill="#522A10"/>
</g>
</svg>
