<svg width="40" height="40" viewBox="0 0 40 40" fill="none" xmlns="http://www.w3.org/2000/svg">
<g clip-path="url(#clip0_578:1167)">
<path d="M37.8954 27.8426C37.5284 27.8426 37.1764 27.9905 36.9169 28.2538C36.6574 28.517 36.5114 28.874 36.5114 29.2463V35.081L28.0875 26.5366C27.9621 26.4067 27.8123 26.3034 27.647 26.233C27.4817 26.1625 27.3042 26.1262 27.1249 26.1262C26.9456 26.1262 26.768 26.1625 26.6027 26.233C26.4374 26.3034 26.2876 26.4067 26.1621 26.5366C26.0307 26.6632 25.926 26.8155 25.8545 26.9845C25.783 27.1534 25.7461 27.3353 25.7461 27.5192C25.7461 27.703 25.783 27.8849 25.8545 28.0539C25.926 28.2228 26.0307 28.3752 26.1621 28.5018L34.586 37.1316H28.8337C28.4666 37.1316 28.1147 37.2795 27.8552 37.5427C27.5956 37.806 27.4497 38.163 27.4497 38.5353C27.4481 38.7201 27.4828 38.9033 27.5518 39.0744C27.6208 39.2454 27.7226 39.4009 27.8515 39.5315C27.9803 39.6622 28.1335 39.7655 28.3022 39.8355C28.4708 39.9055 28.6515 39.9407 28.8337 39.9391H37.8954C38.0776 39.9407 38.2583 39.9055 38.4269 39.8355C38.5955 39.7655 38.7487 39.6622 38.8776 39.5315C39.0064 39.4009 39.1083 39.2454 39.1773 39.0744C39.2462 38.9033 39.281 38.7201 39.2794 38.5353V29.3073C39.2794 28.9351 39.1336 28.578 38.8741 28.3148C38.6145 28.0515 38.2624 27.9037 37.8954 27.9037V27.8426Z" fill="#333240"/>
<path d="M4.72953 2.80756H10.4817C10.6635 2.80756 10.8434 2.77119 11.0113 2.70065C11.1792 2.63011 11.3319 2.52673 11.4604 2.39639C11.5889 2.26604 11.6908 2.11127 11.7604 1.94096C11.8299 1.77065 11.8657 1.58815 11.8657 1.40381C11.8657 1.21947 11.8299 1.03696 11.7604 0.866653C11.6908 0.696345 11.5889 0.541574 11.4604 0.411226C11.3319 0.280879 11.1792 0.177507 11.0113 0.106963C10.8434 0.0364196 10.6635 5.3986e-05 10.4817 5.3986e-05H1.42014C1.23795 -0.00157424 1.05714 0.0336437 0.888506 0.103611C0.719875 0.173578 0.566791 0.276903 0.43796 0.407576C0.30913 0.538249 0.207263 0.693673 0.138282 0.864716C0.069302 1.03576 0.0345808 1.21901 0.036186 1.40381V10.5952C0.0345808 10.78 0.069302 10.9632 0.138282 11.1343C0.207263 11.3053 0.30913 11.4607 0.43796 11.5913C0.566791 11.722 0.719875 11.8253 0.888506 11.8953C1.05714 11.9653 1.23795 12.0005 1.42014 11.9989C1.78718 11.9989 2.13911 11.851 2.39865 11.5878C2.65818 11.3245 2.80395 10.9675 2.80395 10.5952V4.79719L11.3242 13.4392C11.4497 13.5691 11.5995 13.6723 11.7648 13.7428C11.9301 13.8132 12.1075 13.8495 12.2868 13.8495C12.4662 13.8495 12.6438 13.8132 12.8091 13.7428C12.9744 13.6723 13.1241 13.5691 13.2496 13.4392C13.3777 13.3119 13.4794 13.16 13.5489 12.9923C13.6183 12.8247 13.6542 12.6446 13.6542 12.4627C13.6542 12.2808 13.6183 12.1007 13.5489 11.9331C13.4794 11.7654 13.3777 11.6135 13.2496 11.4862L4.72953 2.80756Z" fill="#333240"/>
<path d="M11.276 26.634L2.76796 35.1784V29.3438C2.76796 28.9715 2.62205 28.6145 2.36252 28.3512C2.10298 28.088 1.75105 27.9401 1.38401 27.9401C1.20182 27.9384 1.02115 27.9736 0.85252 28.0436C0.683889 28.1136 0.530658 28.2169 0.401827 28.3476C0.272997 28.4782 0.17113 28.6337 0.102149 28.8047C0.0331692 28.9758 -0.00155204 29.159 5.32246e-05 29.3438V38.5595C-0.00155204 38.7443 0.0331692 38.9276 0.102149 39.0986C0.17113 39.2697 0.272997 39.4251 0.401827 39.5558C0.530658 39.6864 0.683889 39.7898 0.85252 39.8597C1.02115 39.9297 1.20182 39.9649 1.38401 39.9633H10.4457C10.8128 39.9633 11.1647 39.8154 11.4242 39.5521C11.6838 39.2889 11.8295 38.9318 11.8295 38.5595C11.8264 38.1882 11.6796 37.833 11.4207 37.5705C11.1619 37.3079 10.8118 37.159 10.4457 37.1558H4.72953L13.2496 28.5138C13.3777 28.3865 13.4794 28.2345 13.5489 28.0669C13.6183 27.8992 13.6542 27.7191 13.6542 27.5372C13.6542 27.3553 13.6183 27.1753 13.5489 27.0077C13.4794 26.84 13.3777 26.688 13.2496 26.5607C12.9834 26.304 12.6301 26.1609 12.2628 26.1609C11.8954 26.1609 11.5422 26.304 11.276 26.5607V26.634Z" fill="#333240"/>
<path d="M38.0517 0.0366211H28.978C28.6109 0.0366211 28.259 0.184544 27.9995 0.447794C27.7399 0.711043 27.5942 1.06808 27.5942 1.44037C27.5942 1.81266 27.7399 2.1697 27.9995 2.43295C28.259 2.6962 28.6109 2.84405 28.978 2.84405H34.7424L26.3185 11.3885C26.1873 11.514 26.0828 11.6653 26.0114 11.8332C25.94 12.0011 25.9033 12.1821 25.9033 12.3649C25.9033 12.5478 25.94 12.7287 26.0114 12.8967C26.0828 13.0646 26.1873 13.216 26.3185 13.3415C26.4422 13.4745 26.5914 13.5804 26.757 13.6528C26.9225 13.7253 27.101 13.7626 27.2813 13.7626C27.4615 13.7626 27.6398 13.7253 27.8054 13.6528C27.9709 13.5804 28.1202 13.4745 28.2439 13.3415L36.7642 4.7971V10.6317C36.7625 10.8165 36.7971 10.9997 36.8661 11.1708C36.9351 11.3418 37.037 11.4972 37.1658 11.6279C37.2946 11.7586 37.4478 11.8619 37.6165 11.9319C37.7851 12.0018 37.9658 12.037 38.148 12.0354C38.515 12.0354 38.8671 11.8875 39.1266 11.6242C39.3862 11.361 39.5319 11.004 39.5319 10.6317V1.44037C39.5166 1.06676 39.361 0.713179 39.0969 0.452189C38.8329 0.191199 38.4806 0.0425306 38.112 0.0366211H38.0517Z" fill="#333240"/>
<path d="M19.5429 18.3461C20.8589 18.3461 21.9257 17.2641 21.9257 15.9293C21.9257 14.5945 20.8589 13.5125 19.5429 13.5125C18.227 13.5125 17.1602 14.5945 17.1602 15.9293C17.1602 17.2641 18.227 18.3461 19.5429 18.3461Z" fill="#333240"/>
<path d="M15.5117 23.6557C15.5117 21.1412 17.0641 18.6511 19.5431 18.6511C22.0222 18.6511 23.5745 21.0924 23.5745 23.6557" fill="#333240"/>
</g>
<defs>
<clipPath id="clip0_578:1167">
<rect width="39.4719" height="40" fill="white"/>
</clipPath>
</defs>
</svg>
