<svg width="39" height="39" viewBox="0 0 39 39" fill="none" xmlns="http://www.w3.org/2000/svg">
<g clip-path="url(#clip0)">
<path d="M38.01 19C38.01 16.5037 37.518 14.0319 36.5623 11.7258C35.6066 9.41967 34.2058 7.32449 32.44 5.56C30.6747 3.79599 28.5791 2.39705 26.2731 1.44306C23.967 0.48906 21.4956 -0.0013032 19 2.60108e-06C13.9633 1.74049e-05 9.13278 1.99986 5.57001 5.56C3.80419 7.32449 2.40342 9.41967 1.44769 11.7258C0.491964 14.0319 7.33171e-06 16.5037 0 19C7.33171e-06 21.4963 0.491964 23.9681 1.44769 26.2742C2.40342 28.5803 3.80419 30.6755 5.57001 32.44C9.13278 36.0001 13.9633 38 19 38V34.07C16.6174 34.0576 14.2716 33.4812 12.1545 32.3879C10.0375 31.2947 8.20946 29.7156 6.82001 27.78C5.43351 25.8335 4.52917 23.5854 4.18146 21.2209C3.83375 18.8565 4.05261 16.4433 4.82001 14.18C5.58432 11.9153 6.87603 9.86466 8.58862 8.19727C10.3012 6.52988 12.3856 5.2935 14.67 4.59003C16.9541 3.88972 19.3719 3.7421 21.7242 4.15937C24.0766 4.57663 26.2961 5.54681 28.2 6.98999C30.1123 8.43017 31.654 10.3052 32.6974 12.4598C33.7409 14.6145 34.2559 16.9867 34.2 19.38C34.1399 21.7697 33.5117 24.1108 32.3676 26.2096C31.2234 28.3084 29.596 30.1048 27.62 31.45V23.59H23.69V36.04C23.69 36.5705 23.9007 37.0792 24.2758 37.4542C24.6509 37.8293 25.1596 38.04 25.69 38.04H38.14V34.11H30.67C32.9883 32.34 34.868 30.06 36.1634 27.4467C37.4588 24.8333 38.1352 21.9568 38.14 19.04L38.01 19Z" fill="#522A10"/>
</g>
</svg>
