<svg width="61" height="42" viewBox="0 0 61 42" fill="none" xmlns="http://www.w3.org/2000/svg">
<g clip-path="url(#clip0_578:1267)">
<path d="M59.6221 38.2428V2.47466C59.6029 2.23663 59.5107 2.01111 59.3588 1.83091C59.2069 1.65072 59.0033 1.52524 58.7775 1.47275C58.6038 1.42162 58.4242 1.39464 58.2436 1.39258H2.75725C2.57338 1.39387 2.39058 1.42085 2.21371 1.47275C1.98834 1.52419 1.78512 1.64961 1.63462 1.83024C1.48412 2.01087 1.39445 2.23696 1.37891 2.47466V39.425C1.41564 39.7637 1.57947 40.0741 1.83535 40.2895C2.09124 40.5049 2.4187 40.6082 2.74754 40.5772H58.2533C58.5822 40.6082 58.9096 40.5049 59.1655 40.2895C59.4214 40.0741 59.5853 39.7637 59.6221 39.425V37.2809" stroke="#333240" stroke-width="2.84" stroke-linecap="round" stroke-linejoin="round"/>
<path d="M35.9746 12.5439H48.3416" stroke="#333240" stroke-width="3" stroke-miterlimit="10" stroke-linecap="round"/>
<path d="M35.9746 20.1985H48.3416" stroke="#333240" stroke-width="3" stroke-miterlimit="10" stroke-linecap="round"/>
<path d="M27.0343 30.7988V10.7606C27.039 10.6559 27.0185 10.5515 26.9744 10.4571C26.9304 10.3626 26.8642 10.281 26.7819 10.2195C26.7286 10.1996 26.6703 10.1996 26.6169 10.2195H10.3574C10.3067 10.2039 10.2527 10.2039 10.202 10.2195C10.1209 10.2815 10.0562 10.3635 10.0137 10.458C9.97134 10.5525 9.9526 10.6566 9.95935 10.7606V31.3898C9.95935 31.7405 10.1341 32.0311 10.3574 32.0311H26.6169C26.8402 32.0311 27.0246 31.7405 27.0246 31.3898V30.2076" stroke="#333240" stroke-width="3" stroke-linecap="round" stroke-linejoin="round"/>
<path d="M35.9746 27.853H41.3621" stroke="#333240" stroke-width="3" stroke-miterlimit="10" stroke-linecap="round"/>
<path d="M44.8564 27.853H48.3413" stroke="#333240" stroke-width="3" stroke-miterlimit="10" stroke-linecap="round"/>
<path d="M18.4918 21.8115C20.9472 21.8115 22.9377 19.7571 22.9377 17.2228C22.9377 14.6885 20.9472 12.634 18.4918 12.634C16.0364 12.634 14.0459 14.6885 14.0459 17.2228C14.0459 19.7571 16.0364 21.8115 18.4918 21.8115Z" fill="#333240"/>
<path d="M10.9688 31.8907C10.9688 27.1216 13.8809 22.3826 18.4918 22.3826C23.1027 22.3826 26.0149 27.1216 26.0149 31.8907" fill="#333240"/>
</g>
<defs>
<clipPath id="clip0_578:1267">
<rect width="61" height="42" fill="white"/>
</clipPath>
</defs>
</svg>
