<svg xmlns="http://www.w3.org/2000/svg" fill="none" viewBox="0 0 40 41"><circle cx="19.992" cy="20.835" r="20" fill="#fff"/><path fill="#000" d="M25.51 19.99c.114.044.216.093.324.137 1.5.688 2.598 1.718 3.173 2.998.806 1.782.883 4.677-1.556 6.992-1.858 1.767-4.122 2.563-7.32 2.588h-.016c-3.604-.025-6.371-1.177-8.235-3.428-1.658-2.002-2.51-4.79-2.541-8.281v-.025c.026-3.491.878-6.28 2.536-8.281 1.864-2.251 4.636-3.403 8.24-3.428h.015c3.61.025 6.413 1.172 8.333 3.413.944 1.109 1.643 2.442 2.084 3.99l-2.074.527c-.364-1.26-.914-2.334-1.653-3.194-1.5-1.747-3.748-2.646-6.7-2.665-2.926.024-5.139.918-6.582 2.656-1.345 1.626-2.043 3.98-2.069 6.992.026 3.013.724 5.366 2.07 6.997 1.437 1.738 3.655 2.632 6.581 2.656 2.639-.02 4.384-.615 5.837-1.997 1.659-1.572 1.628-3.506 1.1-4.682-.314-.694-.879-1.27-1.639-1.704-.19 1.313-.605 2.358-1.268 3.164-.878 1.064-2.125 1.64-3.732 1.723-1.212.064-2.377-.215-3.28-.781-1.069-.674-1.695-1.7-1.762-2.896-.128-2.358 1.833-4.052 4.888-4.218 1.083-.059 2.1-.015 3.04.136-.124-.722-.376-1.298-.75-1.718-.514-.572-1.315-.865-2.372-.87h-.036c-.852 0-2.002.225-2.737 1.285l-1.766-1.153c.986-1.42 2.583-2.202 4.508-2.202h.041c3.214.02 5.129 1.929 5.324 5.259l-.01.01h.005Zm-8.008 3.36c.067 1.225 1.458 1.796 2.803 1.723 1.314-.069 2.803-.557 3.055-3.575a10.947 10.947 0 0 0-2.229-.214c-.246 0-.492.005-.739.02-2.202.116-2.936 1.132-2.885 2.04l-.005.005Z"/></svg>