<svg width="40" height="41" viewBox="0 0 40 41" fill="none" xmlns="http://www.w3.org/2000/svg">
<circle cx="19.9922" cy="20.6777" r="20" fill="white"/>
<g clip-path="url(#clip0_2910_5787)">
<path d="M19.9963 15.4608C17.4409 15.4608 15.3798 17.5649 15.3798 20.1735C15.3798 22.7821 17.4409 24.8862 19.9963 24.8862C22.5516 24.8862 24.6128 22.7821 24.6128 20.1735C24.6128 17.5649 22.5516 15.4608 19.9963 15.4608ZM19.9963 23.2374C18.3449 23.2374 16.9949 21.8633 16.9949 20.1735C16.9949 18.4836 18.3409 17.1096 19.9963 17.1096C21.6516 17.1096 22.9976 18.4836 22.9976 20.1735C22.9976 21.8633 21.6476 23.2374 19.9963 23.2374ZM25.8784 15.268C25.8784 15.8791 25.3963 16.3672 24.8016 16.3672C24.203 16.3672 23.7249 15.875 23.7249 15.268C23.7249 14.661 24.207 14.1688 24.8016 14.1688C25.3963 14.1688 25.8784 14.661 25.8784 15.268ZM28.936 16.3836C28.8677 14.9112 28.5383 13.6069 27.4816 12.5323C26.4289 11.4577 25.1512 11.1213 23.7088 11.0475C22.2222 10.9614 17.7664 10.9614 16.2798 11.0475C14.8414 11.1172 13.5637 11.4536 12.507 12.5282C11.4503 13.6028 11.1249 14.9071 11.0525 16.3795C10.9682 17.8971 10.9682 22.4458 11.0525 23.9633C11.1208 25.4358 11.4503 26.7401 12.507 27.8147C13.5637 28.8893 14.8374 29.2256 16.2798 29.2995C17.7664 29.3856 22.2222 29.3856 23.7088 29.2995C25.1512 29.2297 26.4289 28.8934 27.4816 27.8147C28.5342 26.7401 28.8637 25.4358 28.936 23.9633C29.0204 22.4458 29.0204 17.9012 28.936 16.3836ZM27.0155 25.5916C26.7021 26.3956 26.0954 27.0149 25.3039 27.3389C24.1186 27.8188 21.3061 27.7081 19.9963 27.7081C18.6865 27.7081 15.8699 27.8147 14.6887 27.3389C13.9012 27.019 13.2945 26.3997 12.9771 25.5916C12.507 24.3817 12.6155 21.5106 12.6155 20.1735C12.6155 18.8364 12.511 15.9612 12.9771 14.7553C13.2905 13.9514 13.8972 13.3321 14.6887 13.0081C15.874 12.5282 18.6865 12.6389 19.9963 12.6389C21.3061 12.6389 24.1226 12.5323 25.3039 13.0081C26.0914 13.328 26.6981 13.9473 27.0155 14.7553C27.4856 15.9653 27.3771 18.8364 27.3771 20.1735C27.3771 21.5106 27.4856 24.3858 27.0155 25.5916Z" fill="black"/>
</g>
<defs>
<clipPath id="clip0_2910_5787">
<rect width="18" height="21" fill="white" transform="translate(10.9922 9.67773)"/>
</clipPath>
</defs>
</svg>
