<svg width="40" height="41" viewBox="0 0 40 41" fill="none" xmlns="http://www.w3.org/2000/svg">
<circle cx="19.9922" cy="20.6777" r="20" fill="white"/>
<g clip-path="url(#clip0_2910_5791)">
<path d="M16.7975 28.3029H13.273V17.2034H16.7975V28.3029ZM15.0333 15.6894C13.9063 15.6894 12.9922 14.7765 12.9922 13.6743C12.9922 13.1449 13.2072 12.6372 13.59 12.2629C13.9728 11.8885 14.492 11.6782 15.0333 11.6782C15.5747 11.6782 16.0938 11.8885 16.4766 12.2629C16.8594 12.6372 17.0745 13.1449 17.0745 13.6743C17.0745 14.7765 16.16 15.6894 15.0333 15.6894ZM29.9884 28.3029H26.4715V22.8997C26.4715 21.612 26.445 19.9607 24.6391 19.9607C22.8067 19.9607 22.5258 21.3597 22.5258 22.807V28.3029H19.0052V17.2034H22.3854V18.7175H22.4348C22.9053 17.8454 24.0547 16.9251 25.7695 16.9251C29.3365 16.9251 29.9922 19.2222 29.9922 22.2058V28.3029H29.9884Z" fill="black"/>
</g>
<defs>
<clipPath id="clip0_2910_5791">
<rect width="17" height="19" fill="white" transform="translate(12.9922 11.6777)"/>
</clipPath>
</defs>
</svg>
