<svg xmlns="http://www.w3.org/2000/svg" fill="none" viewBox="0 0 40 41"><circle cx="19.992" cy="20.622" r="20" fill="#fff"/><path fill="#000" d="M29.574 15.813a2.508 2.508 0 0 0-1.768-1.772c-1.56-.419-7.814-.419-7.814-.419s-6.254 0-7.814.419c-.86.23-1.538.91-1.768 1.772-.418 1.562-.418 4.823-.418 4.823s0 3.261.418 4.824a2.47 2.47 0 0 0 1.768 1.743c1.56.42 7.814.42 7.814.42s6.254 0 7.814-.42a2.47 2.47 0 0 0 1.768-1.743c.418-1.563.418-4.824.418-4.824s0-3.26-.418-4.823Zm-11.627 7.784v-5.921l5.227 2.96-5.227 2.96Z"/></svg>