<svg width="44" height="44" xmlns="http://www.w3.org/2000/svg"><g transform="translate(5 5)" fill="none" fill-rule="evenodd"><circle fill="#FFF" fill-rule="nonzero" cx="19.4" cy="16.4" r="16"/><circle fill="#333240" fill-rule="nonzero" cx="14.75" cy="13.73" r="7.72"/><path d="M6.86 19.05c0 1.89-1.54 3.43-3.43 3.43-1.89 0-3.43-1.54-3.43-3.43 0-1.89 1.54-3.43 3.43-3.43 1.89 0 3.43 1.54 3.43 3.43Z" fill="#58595B" fill-rule="nonzero"/><path d="M30.88 3.43a3.43 3.43 0 1 1-6.86 0 3.43 3.43 0 1 1 6.86 0Z" fill="#A59A96" fill-rule="nonzero"/><circle fill="#FE6659" fill-rule="nonzero" cx="30.2" cy="25.05" r="3.43"/><circle fill="#F4B413" fill-rule="nonzero" cx="25.05" cy="18.19" r="1.72"/><path d="M25.41 32.71c0-.15.01-.3.01-.46 0-5.87-4.76-10.63-10.64-10.63A10.625 10.625 0 0 0 4.16 32.71h21.25Z" fill="#333240"/></g></svg>